<?xml version="1.0" encoding="utf-8"?>
<!-- Generator: Adobe Illustrator 17.0.0, SVG Export Plug-In . SVG Version: 6.00 Build 0)  -->
<!DOCTYPE svg PUBLIC "-//W3C//DTD SVG 1.1//EN" "http://www.w3.org/Graphics/SVG/1.1/DTD/svg11.dtd">
<svg version="1.1" id="图层_1" xmlns="http://www.w3.org/2000/svg" xmlns:xlink="http://www.w3.org/1999/xlink" x="0px" y="0px"
	 width="612px" height="792px" viewBox="0 0 612 792" enable-background="new 0 0 612 792" xml:space="preserve">
<g id="tag">
	<path id="path7" fill="#040000" d="M669.554,168.47c0,0-8.683,1.063-7.516,2.894s7.449,7.547,8.944,8.773
		c1.496,1.227,13.231,13.252,20.268,15.774c7.035,2.521,13.392,2.801,14.299,4.17c0.908,1.37-5.283,12.552,0.637,15.845
		c0,0-3.412,8.946,4.713,15.423s14.866,7.695,16.601,8.683c1.736,0.985,17.19,8.538,20.473,11.731
		c3.283,3.193,18.497,13.172,22.216,15.537c3.721,2.364,18.254,6.787,24.481,7.646c6.226,0.86,14.12,2.712,18.491-2.262
		c4.37-4.976,5.262-8.679,5.98-12.15c0.718-3.471,7.314-18.765,8.748-21.338c1.435-2.572,2.041-9.694,3.091-11.021
		c0.982-1.319,2.117-11.383-5.531-11.222c-7.648,0.16-23.843-2.438-31.693-8.316c-7.783-5.883-28.901-22.894-35.15-25.582
		c-6.248-2.69-18.156-8.646-22.333-8.135c-4.174,0.511-14.932,4.128-16.07,5.819c-1.129,1.759-0.903,0.32-0.903,0.32
		s-5.908-2.659-8.152,3.183c0,0-7.153-2.931-10.15-2.141c-2.998,0.79-21.39-6.263-24.421-10.685
		C673.546,166.995,671.213,168.264,669.554,168.47L669.554,168.47z"/>
	<path id="path9" fill="#FFFFFF" d="M710.463,199.55l1.859,0.9c0,0-1.637,3.653-0.241,5.174c1.388,1.452,2.22,5.149,2.372,6.399
		c0.153,1.249-1.684,4.929-1.546,6.604c0.13,1.605,0.504,7.409,5.59,9.394c5.146,1.908,13.942,5.626,16.432,7.293
		c2.5,1.738,14.07,7.793,17.385,10.7c3.317,2.907,12.587,9.947,17.144,11.998c4.613,1.973,18.197,7.429,22.111,8.078
		c3.913,0.649,12.705,2.674,13.94,2.876c1.235,0.201-8.884,2.709-25.628-3.841c-16.679-6.557-18.425-8.739-20.502-10.32
		c-2.077-1.578-14.663-11.526-17.319-12.329c-2.719-0.795-18.753-10.884-23.371-11.236c-4.551-0.359-8.721-8.589-8.168-12.322
		c0.619-3.741,2.41-6.146,0.092-8.047C708.344,208.824,708.599,203.021,710.463,199.55L710.463,199.55z"/>
	<path id="path11" fill="#FFFFFF" d="M714.971,194.064c0,0,3.239-5.964,3.895-6.115c0.653-0.151-4.192,0.936-5.588,5.477
		c0,0,1.044,1.916,1.693,0.64V194.064z"/>
	<path id="path13" fill="#FFFFFF" d="M723.305,187.406c0,0,0.706,0.83,1.419,0.602c0.721-0.16,2.882-3.384,2.963-3.817
		C727.769,183.758,723.754,185.026,723.305,187.406z"/>
	<path id="path15" fill="#FFFFFF" d="M820.429,222.769c-1.896,0.442-20.458,1.023-32.115-8.476
		c-11.665-9.567-40.735-37.401-57.28-30.229l-5.416,6.865l-4.661-1.261c0,0-4.217,5.66-4.421,6.742
		c-0.195,1.152-3.203,6.806-2.826,8.241c0.378,1.434,0.51,1.418,1.458,2.007c0.945,0.589,1.603,4.519,0.937,6.222
		s-1.392,5.668-1.214,7.126c0.179,1.458,1.063,5.932,7.093,7.943c6.032,2.01,16.591,7.484,20.984,10.401
		c4.393,2.916,27.366,19.699,34.036,21.42c6.67,1.722,26.356,8.685,30.439,7.974s2.806-4.008,3.447-5.919
		c0.64-1.912,14.451-34.653,13.963-36.989c-0.421-2.345-2.518-2.44-4.423-2.067L820.429,222.769L820.429,222.769z M729.417,202.164
		c0,0-3.751,3.984-7.037,2.413c0,0-5.437-2.647-3.233-8.274c0,0,0.729-2.838,4.076-2.966
		C726.522,193.356,731.695,196.599,729.417,202.164L729.417,202.164z"/>
	<g id="g17">
		<path id="XMLID_21_" fill="#FFFFFF" d="M719.112,200.96c-0.995,0.122-3.821,0.115-4.453-0.654
			c-0.158-0.192-0.598-0.491-1.039-0.79c-1.096-0.711-2.632-1.722-3.539-3.09c-1.157-1.761-7.983-5.861-11.446-5.577
			c-4.002,0.278-22.859-9.467-30.309-17.577l-0.467-0.508l2.585-0.316l0.075,0.061c0,0,2.441,1.816,3.512,2.318
			c0.282,0.106,0.647,0.343,1.237,0.765c2.135,1.501,11.62,11.617,18.003,12.104c7.667,0.542,12.91,2.156,16.199,4.854
			c0.599,0.491,1.204,1.051,1.887,1.673c2.277,2.119,4.854,4.482,7.438,4.166c0.331-0.04,0.654-0.151,0.978-0.261l0.066-0.008
			l0.728-0.089l0.041,0.348c0.103,0.833,0.024,2.393-1.094,2.6c-0.141-0.052-0.273-0.036-0.404-0.019L719.112,200.96z"/>
		<g id="XMLID_17_">
			<path id="XMLID_18_" fill="#040000" d="M670.346,172.742c0,0,2.451,1.885,3.579,2.311c1.138,0.495,11.158,12.237,19.307,12.861
				c8.149,0.625,13.069,2.348,15.985,4.741c2.69,2.207,6.028,6.38,9.541,5.95c0.331-0.04,0.72-0.16,1.044-0.269l0.329-0.04
				c0,0,0.313,2.004-0.804,2.213l-0.331,0.04c-1.261,0.154-3.697,0.028-4.104-0.555c-0.483-0.645-3.255-1.857-4.57-3.81
				c-1.324-2.023-8.273-6.037-11.736-5.753c-3.465,0.282-22.512-9.369-30.028-17.47l1.789-0.22 M670.525,172.014l-0.263,0.032
				l-1.79,0.219l-1.326,0.163l0.931,1.014c7.526,8.172,26.533,18.039,30.593,17.684c3.33-0.267,10.006,3.709,11.163,5.47
				c0.982,1.43,2.518,2.441,3.622,3.222c0.367,0.237,0.881,0.597,0.965,0.728c0.8,1.031,4.146,0.903,4.741,0.83l0.333-0.04
				c1.373-0.31,1.501-2.017,1.383-2.99l-0.085-0.694l-0.663,0.081l-0.329,0.04l-0.068,0.009l-0.066,0.007
				c-0.323,0.11-0.58,0.213-0.911,0.254c-2.387,0.292-4.962-2.072-7.165-4.13c-0.682-0.621-1.289-1.181-1.887-1.671
				c-3.29-2.7-8.664-4.296-16.406-4.899c-6.318-0.496-15.728-10.551-17.863-12.052c-0.589-0.421-0.955-0.659-1.245-0.834
				c-0.853-0.389-2.772-1.776-3.437-2.258L670.525,172.014L670.525,172.014z"/>
		</g>
	</g>
	<path id="path22" fill="#040000" d="M717.831,180.605c0,0,1.359,0.115,3.612-0.724c2.258-0.771,0.386,1.503,0.203,1.667
		c-0.191,0.094-4.32,2.079-4.28,1.863C717.466,183.116,717.831,180.605,717.831,180.605L717.831,180.605z"/>
</g>
<path id="path24" fill="#FFFFFF" d="M730.419,199.363c0,0,1.087,3.391-0.111,4.595s-1.486,1.592-2.008,1.726
	c0,0,2.282,1.059,3.618-1.218c1.402-2.286,0.467-4.427-0.231-5.188C731.743,199.201,730.847,198.465,730.419,199.363
	L730.419,199.363z"/>
</svg>
