<?xml version="1.0" encoding="utf-8"?>
<!-- Generator: Adobe Illustrator 17.0.0, SVG Export Plug-In . SVG Version: 6.00 Build 0)  -->
<!DOCTYPE svg PUBLIC "-//W3C//DTD SVG 1.1//EN" "http://www.w3.org/Graphics/SVG/1.1/DTD/svg11.dtd">
<svg version="1.1" id="图层_1" xmlns="http://www.w3.org/2000/svg" xmlns:xlink="http://www.w3.org/1999/xlink" x="0px" y="0px"
	 width="780px" height="792px" viewBox="0 0 780 792" enable-background="new 0 0 780 792" xml:space="preserve">
<g id="tag">
	<path id="XMLID_24_" fill="#040000" d="M684,139.283c0,0,7.272,7.595,7.086,11.925c-0.12,4.342,0.491,7.752-1.256,12.047
		c-1.747,4.294-3.175,10.062,2.6,17.298c5.762,7.3,7.598,7.322,7.575,8.123c-0.09,0.79-0.16,9.307,2.883,15.205
		c3.045,5.898,5.814,17.587,9.417,20.705c3.601,3.119,8.914,8.922,21.419,15.922c12.568,7.013,26.202,14.501,33.823,20.014
		c7.686,5.526,26.026,15.362,28.56,16.663c2.535,1.298,5.082,2.198,8.719-1.662c3.558-3.808,8.944-10.955,11.69-14.45
		c2.747-3.497,5.51-10.146,8.831-14.47c3.268-4.403,7.027-11.596,5.212-14.435c-1.818-2.839-3.283-4.126-10.47-9.421
		c-7.189-5.293-24.986-15.136-32.066-19.269c-7.079-4.13-34.103-21.574-38.528-23.98c-4.36-2.393-7.945-3.896-12.483-4.04
		c-4.525-0.21-12.865,0.586-16.22,1.679c-3.356,1.094-8.687,3.885-9.356,3.486c-0.67-0.398-3.128-2.421-4.417-3.814
		c-1.223-1.38-2.715-5.499-2.093-8.602c0.517-2.587,0.812-11.195,1.067-14.167c0.188-2.985-1.839-16.679-8.594-22.09
		c-6.689-5.4-10.842-3.387-13.185-1.558c-2.421,1.88-1.66,7.267-0.214,8.892L684,139.283z"/>
	<path id="XMLID_23_" fill="#FFFFFF" d="M739.245,181.667c0,0-5.684-1.91-8.937-1.334c-3.25,0.576-9.489,2.117-10.461,2.196
		c-0.969,0.08-8.231,1.623-9.238,2.568c-1.074,0.933-1.742,1.543-1.742,1.543s-0.326,0.608,0.621,1.329
		c1.012,0.734,1.195,0.164,2.28-0.833c1.086-0.997,8.425-3.264,11.075-3.219c2.715,0.058,10.028-1.743,11.367-1.618
		C735.537,182.49,739.143,182.52,739.245,181.667L739.245,181.667z"/>
	<path id="XMLID_22_" fill="#FFFFFF" d="M708.279,192.301c0,0-2.208-1.907-2.758-1.543c-0.536,0.297-0.982,0.816-1.032,1.746
		c-0.05,0.931,2.752,9.402,2.543,9.765c-0.21,0.361,3.245,8.288,3.697,10.122c0.516,1.847,5.155,10.674,6.849,12.079
		c0,0-4.591-10.767-5.557-14.784c-0.557-2.324-3.117-8.263-2.83-9.012C709.568,199.806,708.278,192.302,708.279,192.301
		L708.279,192.301z"/>
	<path id="XMLID_15_" fill="#FFFFFF" d="M719.299,193.102c0,0,2.458-2.747,2.86,1.027
		C722.159,194.129,719.679,193.579,719.299,193.102z"/>
	<path id="XMLID_14_" fill="#FFFFFF" d="M727.685,195.472c0,0-4.05,6.6-7.093,6.815c0,0-0.259,0.956,0.79,1.16
		c1.051,0.204,4.144-0.604,5.24-2.674C727.798,198.65,728.082,196.892,727.685,195.472L727.685,195.472z"/>
	<path id="XMLID_11_" fill="#FFFFFF" d="M825.212,234.015c0.561-1.436,0.009-1.745-2.62-3.935c0,0-4.354-2.857-11.026-6.641
		c-6.673-3.782-49.037-30.39-53.686-32.705c-4.726-2.262-12.977-7.697-14.405-7.37c-1.416,0.262-2.361-0.124-2.361-0.124
		s-15.945,1.667-19.445,2.465c-3.499,0.796-7.513,1.091-8.69,2.204c-1.179,1.114-3.584,4.61-3.567,5.889
		c0.016,1.279,0.401,2.764,0.666,4.158c0.266,1.396,3.588,8.29,4.145,10.614c0.491,2.312,3.083,10.809,3.217,11.844
		c0.198,1.044,2.484,6.997,5.648,8.89c3.166,1.891,8.907,5.898,12.86,7.607c3.951,1.709,12.912,8.02,15.133,9.191
		c2.154,1.157,34.693,19.4,37.333,20.853c2.639,1.455,9.962,8.118,13.18,4.983c3.219-3.135,11.178-14.953,13.515-18.796
		c2.272-3.857,9.556-17.754,10.103-19.125V234.015z M726.891,202.839c-2.041,2.023-3.956,2.389-6.135,1.36
		c-2.18-1.029-3.826-3.7-3.829-5.044c-0.083-1.292,0.847-6.955,2.813-7.915c2.03-0.948,3.274-1.714,4.666-0.839l0.356,0.271
		c0,0,4.111,1.942,4.249,4.992c0.151,2.985-0.079,5.155-2.12,7.178L726.891,202.839z"/>
	<g id="XMLID_4_">
		<path id="XMLID_21_" fill="#FFFFFF" d="M717.418,196.7c-0.525-0.103-1.101-0.282-1.588-0.579
			c-3.612-2.046-8.448-5.136-10.762-7.87c-2.328-2.672-4.104-5.031-4.685-5.883l0.014-0.064c-0.132-0.362-0.448-0.826-0.908-1.251
			l-0.593-0.787l0.013-0.064c-0.054-0.414-0.304-0.865-0.435-0.891c0,0-0.066-0.012-0.079,0.053l-0.223,0.091l-0.158-0.232
			c-0.329-0.4-0.579-0.851-0.828-1.303l-0.106-0.154l0.103-0.181c0.092-0.117-0.053-0.414-0.355-0.607l-0.119-0.09l-0.054-0.077
			c-0.29-0.593-0.501-1.239-0.647-1.872l-0.039-0.141l0.091-0.118c0.078-0.052,0.052-0.259-0.212-0.645
			c-0.724-1.148-0.647-7.313,0.239-19.903c0.429-6.566-4.995-15.212-7.256-16.524l-0.183-0.103l-0.028-0.207
			c0.028-0.129,0.034-2.881,1.881-2.926c0.408,0.013,0.749,0.012,1.077,0.075c0.918,0.179,1.366,0.67,1.972,1.728
			c0.053,0.075,0.158,0.23,0.316,0.463c1.341,2.142,5.555,8.672,5.102,16.039l-0.138,2.389c-0.379,5.974-0.781,13.418-0.47,16.634
			c-0.013,0.066,0.045,2.495,0.691,3.695c0.198,0.373,0.395,0.748,0.633,1.264c0.489,0.969,1.082,2.091,1.712,3.02
			c0.041,0.141,0.16,0.232,0.263,0.388c0.105,0.154,0.263,0.386,0.435,0.555c2.04,2.411,6.47,6.833,7.955,7.928
			c1.722,1.275,7.582,5.035,9.564,6.024l2.534,1.298l-0.536,0.301C721.129,196.212,719.387,197.083,717.418,196.7L717.418,196.7z"/>
		<g id="XMLID_17_">
			<path id="XMLID_18_" fill="#040000" d="M691.242,134.781c0.787,0.154,1.169,0.63,1.736,1.548
				c0.764,1.291,5.831,8.322,5.378,16.361c-0.39,6.372-0.96,15.329-0.621,19.087c0,0,0.032,2.559,0.731,3.838
				c0.553,0.98,1.397,2.891,2.345,4.284c0.039,0.143,0.158,0.233,0.263,0.389c0.105,0.154,0.263,0.386,0.433,0.555l0.054,0.077
				c1.921,2.322,6.404,6.82,7.955,7.928c1.722,1.276,7.646,5.047,9.563,6.025l1.983,0.99c0,0-1.676,0.884-3.644,0.5
				c-0.461-0.089-0.972-0.257-1.458-0.552c-2.443-1.416-8.104-4.801-10.708-7.793c-2.434-2.822-4.158-5.106-4.685-5.88
				c-0.119-0.427-0.499-0.905-1.078-1.42c-0.276-0.322-0.486-0.632-0.486-0.632s-0.199-1.046-0.724-1.148
				c-0.066-0.013-0.198-0.038-0.275,0.013c-0.315-0.465-0.579-0.851-0.828-1.303c0.129-0.31,0.009-0.737-0.542-1.046
				c-0.277-0.659-0.501-1.239-0.659-1.806c0.169-0.169,0.167-0.505-0.135-1.035c-0.869-1.445-0.176-13.065,0.266-19.696
				c0.442-6.63-5.089-15.431-7.4-16.82c0,0,0.033-2.547,1.541-2.589c0.461,0.089,0.734,0.075,0.997,0.127 M691.373,134.139
				c-0.329-0.064-0.668-0.063-1.141-0.088c-1.719,0.069-2.185,2.06-2.222,3.262l-0.012,0.401l0.301,0.193
				c2.13,1.286,7.488,9.919,7.112,16.228c-0.875,12.86-0.913,18.831-0.135,20.056c0.105,0.154,0.145,0.296,0.132,0.361l-0.182,0.233
				l0.066,0.348c0.212,0.646,0.423,1.292,0.713,1.886l0.092,0.219l0.184,0.103l0.235,0.179l-0.129,0.31l0.145,0.298
				c0.25,0.452,0.566,0.916,0.882,1.38l0.329,0.4l0.367-0.132c0.103,0.156,0.198,0.376,0.224,0.583l0.04,0.141l0.105,0.154
				c0,0,0.211,0.31,0.487,0.632l0.105,0.155l0.066,0.013c0.395,0.414,0.659,0.8,0.802,1.097l0.053,0.077l0.053,0.077
				c0.579,0.852,2.356,3.213,4.685,5.882c2.38,2.747,7.214,5.836,10.892,7.896c0.485,0.296,1.063,0.475,1.654,0.591
				c2.166,0.421,3.986-0.501,4.064-0.553l1.14-0.583l-1.116-0.555l-1.983-0.988c-1.917-0.978-7.777-4.738-9.499-6.014
				c-1.486-1.094-5.864-5.439-7.836-7.838l-0.054-0.077c-0.171-0.167-0.329-0.4-0.433-0.555c-0.054-0.077-0.16-0.232-0.212-0.31
				c-0.632-0.928-1.225-2.051-1.646-3.007c-0.251-0.452-0.501-0.903-0.634-1.264c-0.5-0.903-0.662-2.816-0.664-3.488
				c-0.31-3.217,0.157-10.649,0.536-16.62c0.024-0.801,0.113-1.59,0.138-2.391c0.414-7.51-3.786-14.103-5.196-16.258
				c-0.092-0.22-0.198-0.374-0.315-0.465C693.013,135.128,692.552,134.367,691.373,134.139L691.373,134.139z"/>
		</g>
	</g>
	<path id="XMLID_3_" fill="#FFFFFF" d="M695.452,171.267c0,0-0.865,5.34,5.851,11.953l-1.554-3.123l-4.299-8.829L695.452,171.267z"
		/>
</g>
</svg>
