<?xml version="1.0" encoding="utf-8"?>
<!-- Generator: Adobe Illustrator 17.0.0, SVG Export Plug-In . SVG Version: 6.00 Build 0)  -->
<!DOCTYPE svg PUBLIC "-//W3C//DTD SVG 1.1//EN" "http://www.w3.org/Graphics/SVG/1.1/DTD/svg11.dtd">
<svg version="1.1" id="图层_1" xmlns="http://www.w3.org/2000/svg" xmlns:xlink="http://www.w3.org/1999/xlink" x="0px" y="0px"
	 width="612px" height="792px" viewBox="0 0 612 792" enable-background="new 0 0 612 792" xml:space="preserve">
<g id="tag">
	<path id="XMLID_23_" fill="#040000" d="M744.182,176.559c0,0-4.672-1.284-6.136-0.053c-1.464,1.232-10.189,0.366-12.401,1.357
		c-2.21,0.99-4.991,1.05-6.179,1.124c-1.188,0.075-2.818-9.159-9.328-6.234c0,0-3.158,0.319-3.079,2.158c0,0-0.944,0.687-2.3-0.73
		c-1.353-1.415-4.339-7.932-14.72-10.12c-10.385-2.191-15.338-4.328-19.746-4.59c0,0-4.244,0.582-5.107,4.464
		c-0.924,3.878-0.463,5.394,1.311,5.369c1.768,0.033,10.452,0.009,13.668,1.762c3.158,1.747,11.556,3.001,14.023,8.645
		c2.469,5.645,6.05,7.251,6.455,8.054c0,0-4.72-0.051-5.492,4.134c-0.775,4.188-0.792,7.846,3.653,8.346l2.314,0.554
		c0,0-3.932,3.854-3.92,6.455c-0.045,2.595,0.414,4.819,0.723,6.027c0.368,1.212,3.148,5.997,3.442,9.449
		c0.294,3.452,0.369,4.639,1.145,5.236c0.774,0.598,3.344,3.713,6.626,6.061c3.226,2.343,13.28,6.987,19.329,10.812
		c6.056,3.765,16.114,9.059,19.77,10.495c3.599,1.431,32.603,17.47,37.212,20.878c4.55,3.403,13.445,5.051,16.872,2.275
		c3.427-2.777,4.472-3.929,6.582-4.455c2.112-0.527,4.567-0.908,7.074-3.291s7.914-11.013,9.175-13.328
		c1.315-2.25,3.307-7.57,3.662-8.958c0.296-1.393,0.745-6.61,0.392-8.709c-0.298-2.032-3.066-9.003-2.535-10.374
		c0.53-1.373,0.736-5.843-5.068-9.766c-5.805-3.923-14.298-7.487-17.954-9.63c-3.66-2.087-31.942-17.592-35.255-19.589
		C765.028,188.269,748.741,177.126,744.182,176.559L744.182,176.559z"/>
	<g id="XMLID_21_">
		<path id="XMLID_22_" fill="#FFFFFF" d="M796.084,273.346c-1.626-0.317-8.709-3.109-9.915-4.217
			c-1.203-1.108-33.032-17.98-35.515-19.316c-2.489-1.275-13.949-6.747-15.887-8.922c-2.005-2.12-10.058-6.001-12.786-7.238
			c-2.665-1.293-7.944-4.462-9.356-5.233c-1.409-0.77-1.033-1.034-1.579-3.618c-0.605-2.593-1.295-2.12-2.202-6.686
			c-0.85-4.56-2.897-6.155-3.947-8.37c-1.055-2.158,0.092-1.763-0.057-2.78c-0.154-0.958,2.999-5.352,4.462-7.944
			c1.462-2.592,2.305-4.173,4.18-7.437c1.816-3.268,4.388-7.772,4.388-7.772c0.065-0.054,0.133-0.167,0.196-0.22
			c-1.628,0.392-2.903,0.814-3.119,1.269c0,0-2.514,4.509-4.389,7.773c-1.816,3.269-2.72,4.844-4.181,7.437
			c-1.461,2.592-4.614,6.987-4.46,7.944c0.154,0.959-0.993,0.566,0.057,2.782c1.055,2.158,3.099,3.809,3.947,8.37
			c0.849,4.56,1.598,4.094,2.202,6.685c0.605,2.59,0.227,2.854,1.579,3.618c1.413,0.771,6.631,3.936,9.355,5.233
			c2.665,1.292,10.781,5.12,12.784,7.238c2.004,2.122,13.406,7.588,15.889,8.924c2.489,1.275,34.316,18.149,35.516,19.314
			c1.206,1.108,8.289,3.901,9.915,4.217c1.046,0.208,2.918-0.28,4.464-1.092c-0.602,0.125-1.134,0.14-1.54,0.045L796.084,273.346z"
			/>
	</g>
	<path id="XMLID_20_" fill="#FFFFFF" d="M719.427,183.591c0,0-2.512,4.509-4.388,7.773c-1.816,3.269-2.719,4.844-4.181,7.437
		c-1.461,2.589-4.615,6.986-4.462,7.944c0.155,0.958-0.992,0.564,0.058,2.78c1.054,2.158,3.099,3.81,3.946,8.371
		c0.85,4.562,1.598,4.095,2.203,6.685c0.605,2.592,0.227,2.854,1.579,3.62c1.411,0.769,6.631,3.932,9.356,5.231
		c2.663,1.292,10.78,5.117,12.784,7.238c2.003,2.121,13.404,7.588,15.887,8.924c2.49,1.275,34.316,18.149,35.516,19.314
		c1.204,1.108,8.286,3.9,9.915,4.217c1.626,0.317,5.109-1.039,6.422-2.579c1.315-1.54,5.647-3.177,7.621-3.482
		c1.971-0.243,5.048-3.759,6.96-6.784c1.912-3.025,6.752-11.232,7.254-12.962c0.503-1.728-0.586-4.183-0.586-4.183
		s-1.772-8.952-2.372-11.602c-0.605-2.592-0.095-5.088-0.7-5.612c-0.6-0.584-2.181-1.428-7.774-4.388
		c-5.656-2.905-10.604-5.811-14.132-8.061c-3.528-2.253-30.2-16.556-33.424-18.9c-3.226-2.343-17.465-9.826-20.057-11.288
		c-2.59-1.464-5.155-3.928-6.518-3.868c-1.369,0.118-5.588,1.115-8.99,1.531c-3.396,0.359-11.286,1.453-11.919,2.638
		L719.427,183.591z"/>
	<path id="XMLID_19_" fill="#040000" d="M722.735,195.27c-0.894,0.102-2.586,0.547-3.243,1.318
		c-0.657,0.769-2.365,2.098-2.481,3.448c-0.174,1.344-0.348,2.687,1.69,4.397c0,0,2.913,1.844,5.427,0.761
		c2.514-1.084,3.001-3.996,2.826-4.719C726.839,199.758,726.499,194.768,722.735,195.27L722.735,195.27z"/>
	<g id="XMLID_9_">
		<path id="XMLID_15_" fill="#FFFFFF" d="M721.283,199.105c-1.054-0.091-10.131-0.988-14.077-5.933
			c-1.496-1.841-2.565-3.823-3.743-5.932c-2.096-3.782-4.505-8.064-9.706-12.821c-1.975-1.765-9.143-7.694-19.403-8.575
			c-1.641-0.141-3.292-0.164-4.901-0.007l-0.118-0.009l-0.112-0.069c-0.167-0.132-0.492-0.456-0.447-0.984
			c0.049-0.587,0.574-1.19,1.569-1.756c0.806-0.461,1.765-0.616,2.995-0.51c1.292,0.109,2.615,0.52,3.648,0.843
			c0.461,0.157,0.807,0.247,1.154,0.336c1.738,0.386,14.404,4.19,18.829,9.057c4.693,5.187,8.594,10.66,9.973,13.849
			c1.817,4.291,3.778,6.23,7.908,7.647c0.806,0.245,1.613,0.493,2.359,0.736c2.758,0.885,4.946,1.545,5.149,2.625
			c0.078,0.481-0.196,0.928-0.765,1.351l-0.064,0.054l-0.245,0.098L721.283,199.105z"/>
		<path id="XMLID_12_" fill="#040000" d="M673.374,162.808c1.817,0.157,3.701,0.908,4.741,1.174
			c1.564,0.371,14.347,4.183,18.66,8.983c4.371,4.806,8.502,10.356,9.919,13.784c1.763,4.227,3.765,6.348,8.127,7.846
			c4.36,1.496,9.068,2.372,6.606,4.227l-0.058-0.005c-0.937-0.08-10.015-0.977-13.847-5.854
			c-4.109-5.135-5.345-11.383-13.506-18.815c-1.643-1.5-9.02-7.743-19.574-8.649c-1.581-0.136-3.234-0.158-4.958-0.011
			c0,0-1.279-0.935,1.075-2.21C671.366,162.814,672.377,162.722,673.374,162.808 M673.424,162.221
			c-1.289-0.111-2.305,0.04-3.177,0.555c-1.115,0.613-1.702,1.271-1.704,1.981c-0.066,0.761,0.49,1.163,0.604,1.232l0.167,0.133
			l0.239-0.04c1.609-0.157,3.26-0.133,4.842,0.003c10.142,0.868,17.257,6.735,19.231,8.499c5.149,4.693,7.557,8.976,9.654,12.759
			c1.177,2.109,2.305,4.095,3.796,5.994c3.995,5.066,13.249,5.978,14.304,6.068l0.058,0.005l0.234,0.02l0.191-0.16
			c0.696-0.53,0.981-1.099,0.908-1.635c-0.245-1.261-2.37-1.975-5.364-2.881c-0.745-0.241-1.551-0.488-2.358-0.736
			c-4.012-1.406-5.977-3.287-7.748-7.455c-1.373-3.246-5.274-8.72-10.02-13.97c-4.478-4.933-17.204-8.74-18.996-9.189
			c-0.289-0.084-0.693-0.176-1.095-0.33c-1.152-0.334-2.475-0.742-3.765-0.853L673.424,162.221z"/>
	</g>
	<path id="XMLID_7_" fill="#FFFFFF" d="M710.141,189.939c0,0,1.388-9.98-0.912-10.709c0,0-0.35-0.738,0.287-1.275
		c0.638-0.536,1.317-0.89,1.781-0.791c0.464,0.098,1.557,0.428,1.658,2.032c0.098,1.601-0.009,3.54-0.537,5.564
		c-0.534,2.079-0.475,2.795-0.843,3.649c-0.306,0.801-0.017,2.242-1.431,1.53v0.001h-0.003V189.939z"/>
	<path id="XMLID_6_" fill="#FFFFFF" d="M709.1,180.046c0,0,1.213,1.698-0.054,4.07c0,0-0.82,0.637-0.957,0.155
		c-0.141-0.425-0.527-2.112,0.518-3.972L709.1,180.046L709.1,180.046z"/>
	<path id="XMLID_5_" fill="#FFFFFF" d="M706.986,195.751c0,0-5.933,2.385-8.729-0.157c0,0-1.3-1.353,0.584-2.668
		c0,0,0.846-0.223,0.811,0.187c-0.035,0.412-0.296,1.393,0.392,1.628c0.683,0.296,2.055,0.828,3.071,0.679
		c1.017-0.149,2.736-0.239,2.736-0.239S707.06,194.871,706.986,195.751L706.986,195.751z"/>
	<path id="XMLID_4_" fill="#FFFFFF" d="M704.24,194.038c0,0-2.797,0.234-3.531-0.185c-0.731-0.417-0.216-1.614,1.339-1.125
		C703.547,193.151,705.311,193.244,704.24,194.038L704.24,194.038z"/>
	<path id="XMLID_3_" fill="#FFFFFF" d="M725.807,200.082c0,0-2.579,3.203-3.629,3.054s-1.197,0.192-1.477,0.701
		c-0.279,0.507,1.39,1.005,3.067,0.736c1.681-0.328,2.249-2.11,2.446-3.038C726.407,200.665,726.204,199.585,725.807,200.082
		L725.807,200.082z"/>
</g>
</svg>
