<?xml version="1.0" encoding="utf-8"?>
<!-- Generator: Adobe Illustrator 17.0.0, SVG Export Plug-In . SVG Version: 6.00 Build 0)  -->
<!DOCTYPE svg PUBLIC "-//W3C//DTD SVG 1.1//EN" "http://www.w3.org/Graphics/SVG/1.1/DTD/svg11.dtd">
<svg version="1.1" id="图层_1" xmlns="http://www.w3.org/2000/svg" xmlns:xlink="http://www.w3.org/1999/xlink" x="0px" y="0px"
	 width="780px" height="500px" viewBox="0 0 780 500" enable-background="new 0 0 780 500" xml:space="preserve">
<g>
	<path fill="#040000" d="M454.557,297.85c0-2.295-0.296-4.147-0.518-5.48c-0.075-0.52-0.147-1.112-0.147-1.335
		c0-0.37,0.073-0.888,0.147-1.705c0.15-1.038,0.296-2.296,0.37-3.928c0.15-1.7,0.075-3.034,0-3.925v-0.591c0-1.037,0-2,0.075-3.112
		c0.073-1.334,0.147-2.815,0.073-4.592c0-2.738-0.225-5.035-0.37-7.11c-0.148-1.777-0.294-3.408-0.294-5.188v-1.997
		c0-0.816,0.073-1.779,0.073-3.038c0-1.263-0.073-2.3-0.147-3.187c-0.075-0.741-0.075-1.259-0.075-1.925v-1.188l-0.148-0.812v-0.295
		c0-1.188-0.075-2.15-0.147-2.89c0-0.592-0.073-1.037-0.073-1.481v-0.296c0-0.15,0.075-0.517,0.075-0.815
		c0.148-1.109,0.37-2.813,0.37-4.888c0-1.185-0.075-2.15-0.15-2.887c0-0.594-0.073-1.113-0.073-1.631v-3.63
		c0-1.333,0.075-2.666,0-4.37l-0.075-3.704c0.15-0.962,0.225-2.221,0.225-3.778c-0.075-7.185-4.742-13.927-11.706-16.669
		l-0.74-0.296l-0.816-0.225c-1.556-0.444-3.187-0.665-4.815-0.665h-0.148l-1.185-0.225h-1.408c-1.48,0-2.666,0.15-3.406,0.225
		c-0.075,0-0.225,0-0.37,0.075c-0.446-0.075-1.113-0.075-1.927-0.075h-0.741l-0.89-0.15h-0.816c-0.518-0.075-1.185-0.075-2.15-0.075
		h-0.223c-5.332,0.075-9.925,2.669-12.741,5.262c-2.448,2.15-3.557,4.444-4.15,5.556c0,0.073-0.075,0.148-0.075,0.223l-1.629,2.74
		l-0.148,0.296l-0.15,0.296c-0.741,1.334-1.188,2.519-1.556,3.408c-0.225,0.518-0.37,0.887-0.592,1.259l-0.073,0.225l-0.075,0.223
		c-0.37,0.812-0.666,1.259-1.259,2.444l-0.371,0.666c-0.887,1.481-1.408,2.668-1.852,3.63c-0.075,0.075-0.075,0.225-0.148,0.296
		c-0.075,0.15-0.225,0.296-0.298,0.445c-0.296,0.445-0.741,0.962-1.185,1.63l-1.556-2.296l-0.15-0.225l-0.148-0.22
		c-0.446-0.591-0.816-1.11-1.113-1.48c-0.075-0.075-0.15-0.225-0.225-0.296l-0.591-0.89l-0.075-0.075
		c-0.073-0.223-0.223-0.369-0.295-0.591l-0.516-0.962l-0.666-0.887l-1.113-1.483l-1.11-1.706l-0.445-0.665l-0.517-0.594
		c-0.225-0.225-0.371-0.445-0.594-0.666c-0.369-0.592-0.74-1.113-1.037-1.63c-0.962-1.555-1.997-3.185-3.555-5.259
		c-1.481-2-3.26-3.704-5.26-5.037l-0.369-0.225l-0.37-0.221c-2.888-1.63-6.22-2.519-10-2.519h-0.296
		c-1.037,0-1.852,0.075-2.371,0.15h-0.962l-0.887,0.15h-1.037l-5.481,0.075c-6.891,0.073-11.854,4.518-13.188,5.925
		c-3.556,3.63-5.188,7.779-5.112,12.965c0,1.113,0,2.371,0.225,4.15c0.294,4.22,0.444,7.407,0.591,11.259
		c0,1.554,0.075,2.887,0.225,4.813v2.52c0,0.887,0.075,1.705,0.15,2.371c0,0.37,0.073,0.666,0.073,0.887v0.446
		c0,0.592-0.075,1.481-0.075,2.592v3.041c-0.075,1.259-0.225,2.593-0.15,4.371c0,0.741,0.075,1.335,0.075,1.779v0.445l-0.075,0.594
		v0.666c0,0.225,0,0.519-0.073,1.037c-0.075,0.89-0.148,2.15-0.148,3.705c0,1.481,0.15,2.668,0.225,3.556
		c0.073,0.444,0.073,0.887,0.073,1.11v2.075c0,0.887-0.075,1.925-0.075,3.185c0,1.629,0.15,3.185,0.225,4.593
		c0.073,1.112,0.148,2.15,0.148,3.037c0,0.666-0.075,1.408-0.075,2.15c-0.073,1.997-0.223,4.295-0.223,6.666l0.15,10.371v1.037
		c-0.075,3.853,0.665,6.075,2.075,9.038l1.11,2.296l0.666,0.592c0.371,0.519,0.816,1.113,1.335,1.631
		c3.184,3.556,7.85,5.482,13.26,5.556h0.815c1.775,0,3.332-0.225,4.518-0.37c0.296-0.075,0.666-0.075,0.887-0.15h0.15
		c0.741,0,1.334,0.075,2.296,0.075c0.223,0,0.369,0,0.591,0.075c0.816,0.147,2.075,0.295,3.704,0.295H371l0.96-0.15
		c0.816-0.148,2.446-0.445,4.075-1.037c7.262-2.446,12.002-9.188,11.929-16.891c0-1.037-0.075-1.925-0.15-2.371v-0.887
		c0.075-1.483,0-2.668,0-3.556v-1.925c0-0.3-0.075-0.595-0.075-0.891c0.371,0.225,0.742,0.445,1.113,0.592
		c1.481,0.887,4.519,2.519,8.816,2.519h0.075c1.48,0,3.925-0.148,6.592-1.113c-0.075,1.037-0.148,2.225-0.075,3.631
		c0,1.854,0.295,3.335,0.445,4.225v0.073c0.37,9.26,7.925,16.743,16.965,16.743h0.223c0.962,0,1.777-0.075,2.296-0.15h0.225
		l0.516-0.073h6.003c0.813,0,1.703,0.073,2.666,0.073h0.887c6.669-0.075,12.002-2.296,15.783-6.668l0.445-0.445l0.37-0.52
		c2.446-3.334,3.63-7.038,3.556-11.037v-1.709c-0.15-0.297-0.075-1.112-0.075-2l-0.003-0.005L454.557,297.85L454.557,297.85z"/>
	<path fill="#FFFFFF" d="M370.472,304.961c-0.221,0-0.444-0.075-0.741-0.15c-1.85-0.073-3.038-0.223-4.813-0.223
		c-1.854,0-3.78,0.594-5.631,0.446c-1.557,0-2.741-0.371-3.262-1.038c-0.369-0.372-0.665-1.04-0.812-1.188
		c-0.965-1.925-0.668-1.408-0.668-4.15l-0.148-10.37c0-2.888,0.225-5.779,0.296-8.52c0-2.74-0.296-5.334-0.37-8
		c0-2,0.073-3.262,0.073-5.262c0-1.7-0.296-3.035-0.296-4.738c0-1.854,0.225-3.037,0.225-4.742c0.148-1.334,0-2.223-0.075-3.556
		c0-1.408,0.075-2.519,0.225-4.075l-0.075-3.406c0-1.185,0.073-2,0.073-3.037c0-1.185-0.15-2.223-0.15-3.26
		c0-1.408,0.075-2.371-0.073-3.779s-0.15-2.371-0.15-3.779c-0.146-4.445-0.369-7.706-0.665-12.15
		c-0.073-0.371-0.073-0.668-0.073-0.965h-1.037c-1.408,0-2.962,1.335-3.408,1.779c-0.815,0.815-1.185,1.334-1.113,3.037
		c0,1.037,0,1.853,0.15,3.038c0.293,4.445,0.516,7.705,0.662,12.15c0,1.408,0,2.371,0.15,3.779c0.148,1.409,0,2.371,0.073,3.779
		c0,1.037,0.15,2.075,0.15,3.262c0,1.037-0.075,1.85-0.075,3.037l0.075,3.406c-0.148,1.556-0.221,2.592-0.221,4.075
		c0,1.334,0.147,2.223,0.075,3.556c0,1.705-0.225,2.888-0.225,4.741c0,1.703,0.297,3.038,0.297,4.738c0,2-0.075,3.262-0.075,5.262
		c0,2.591,0.298,5.259,0.371,8c-0.075,2.74-0.296,5.63-0.296,8.52l0.15,10.37c0,2.74-0.225,2.223,0.665,4.15
		c0.15,0.148,0.371,0.813,0.816,1.184c0.518,0.666,1.705,1.037,3.26,1.037c1.852,0.075,3.779-0.445,5.63-0.445
		c1.852,0,3.037,0.075,4.815,0.225c0.813,0.148,1.333,0.223,2.223,0.223c0,0,0.887-0.15,1.555-0.446
		c0.888-0.294,2.593-1.184,2.593-3.555c0-0.816-0.15-1.409-0.15-2.223v-0.741L370.472,304.961L370.472,304.961z M403.068,279.035
		c0,0,0.075-0.075,0.15-0.075C403.143,278.96,403.143,278.96,403.068,279.035z M437.073,303.851h-0.887
		c-2.225,0-3.78-0.075-5.854-0.075c-1.705,0-3.038-0.071-4.741,0.075c-0.815,0-1.334,0.15-1.925,0.15
		c-1.927,0-3.038-2.075-3.038-3.481c0-1.337-0.446-2.372-0.446-3.78c0-2.223,0.225-3.779,0.225-5.853c0.071-2-0.075-3.26-0.075-5.26
		c0-1.705,0.223-2.888,0.223-4.741c0-1.556-0.298-2.592-0.298-4.15c0.148-1.406,0.37-2.518,0.37-4.075
		c0-1.037-0.148-1.85-0.148-3.038c0-0.516,0.15-0.887,0.15-1.406c0-0.445-0.15-0.741-0.225-1.112
		c-1.184,0.965-3.406,2.741-3.777,3.409c-0.37,0.592-1.185,1.556-1.925,2.296c0,0.887,0.444,1.408,0.444,2.223
		c0,0.518-0.15,0.888-0.15,1.408c0,1.185,0.15,1.925,0.15,3.037c0,1.556-0.225,2.592-0.37,4.075c0,1.557,0.295,2.594,0.295,4.15
		c0,1.854-0.225,3.037-0.225,4.742c0,1.925,0.15,3.257,0.075,5.259c0,2.072-0.22,3.629-0.22,5.85c0,1.41,0.445,2.521,0.445,3.78
		c0,1.408,1.113,3.556,3.038,3.481c0.666,0,1.185-0.148,1.925-0.148c1.706-0.15,3.04,0,4.744-0.075c2.075,0,3.631,0.075,5.854,0.075
		c2.593,0,4.296-0.592,5.482-1.925c0.369-0.519,0.888-1.335,0.888-2.594v-2.297l-0.003-0.004L437.073,303.851L437.073,303.851z"/>
	<path fill="#FFFFFF" d="M440.038,209.843c0.369,0,1.037-0.15,1.997,0.073c1.557,0.666,2.89,2.296,2.89,3.928
		c0,1.035-0.075,1.85-0.225,2.887l0.075,4.593c0,3.037-0.073,4.962,0,8c0,1.706,0.15,2.89,0.225,4.594
		c0,2.072-0.52,3.555-0.446,5.629v0.296c0,1.556,0.15,2.74,0.15,4.445c0,0.812,0,1.406,0.147,2.223c0,1.85,0.15,3.11,0.225,5.11
		c0,1.853-0.075,3.038-0.075,4.963c0.073,4.594,0.591,7.706,0.665,12.3c0,2.887-0.225,4.813-0.15,7.702
		c0,1.188,0.15,2.075,0.075,3.41c-0.075,2.519-0.592,4.221-0.592,6.668c0,2.519,0.741,4.296,0.741,6.815
		c0,0.888-0.075,2-0.075,2.888v1.188c0,1.334-0.516,2.075-0.887,2.593c-1.185,1.334-2.887,1.852-5.482,1.925
		c-2.223,0-3.779-0.075-5.853-0.075c-1.702,0-3.037-0.073-4.738,0.075c-0.817,0-1.337,0.15-1.93,0.15c-2,0-3.038-2.075-3.038-3.483
		c0-1.335-0.444-2.371-0.444-3.779c0-2.223,0.225-3.779,0.225-5.925c0.071-2-0.075-3.262-0.075-5.262
		c0-1.704,0.223-2.888,0.223-4.74c0-1.555-0.296-2.591-0.296-4.147c0.15-1.408,0.37-2.519,0.37-4.075c0-1.037-0.15-1.853-0.15-3.038
		c0-0.517,0.15-0.887,0.15-1.408c0-0.815-0.446-1.334-0.446-2.223c0,0,0.148-0.37-0.15-0.815c-0.148-0.37-1.037-1.334-1.333-1.408
		c-0.296-0.15-0.666-0.15-0.815-0.15c-0.815,0-1.185,0.15-1.852,0.519c-2.223,1.185-3.26,3.037-4.815,5.038
		c-0.516,0.815-1.925,2.371-2.813,3.187c0,0.146-1.188,1.034-1.706,1.7l-1.184,1.706l-1.705,2.223
		c-0.294,0.369-0.369,0.665-0.741,0.887l-0.516,0.666c-1.185,0.667-2.74,0.667-2.887,0.667c-0.891,0-1.483-0.369-1.855-0.665
		c-2.075-1.037-1.853-1.556-3.188-3.334l-1.85-2.371c-0.517-0.741-0.962-1.259-1.556-1.925c-0.517-0.667-0.962-1.188-1.63-1.779
		c-0.369-0.37-0.518-0.666-0.962-1.185c-0.813-0.741-1.333-1.185-2.147-2.075c-0.517-0.516-0.815-1.034-1.63-2.221
		c-1.188-1.555-3.037-4.518-5.038-4.666c-0.816,0-2.371,0.445-2.965,1.113l-0.666,1.48c-0.518,1.706-0.518,3.263-0.445,3.78
		l0.075,8.89c0,1.334,0.148,2.223,0.148,3.556c0,2.372-0.594,3.929-0.594,6.15c0,1.037,0.148,1.704,0.148,2.741
		c0,1.925,0.075,3.408,0.225,5.334c0,1.556,0.147,2.592,0.075,4.075v1.556c0,0.815,0.146,1.408,0.146,2.223
		c0,2.371-1.631,3.26-2.594,3.556c-0.666,0.296-1.556,0.445-1.556,0.445c-0.887,0-1.406-0.15-2.223-0.225
		c-1.853-0.071-3.038-0.22-4.815-0.22c-1.852,0-3.779,0.593-5.63,0.445c-1.556,0-2.74-0.37-3.26-1.037
		c-0.37-0.37-0.666-1.038-0.815-1.185c-0.962-1.925-0.666-1.408-0.666-4.15l-0.146-10.37c0-2.887,0.225-5.779,0.296-8.52
		c0-2.74-0.296-5.334-0.37-8c0-2,0.075-3.262,0.075-5.262c0-1.704-0.298-3.038-0.298-4.74c0-1.853,0.225-3.038,0.225-4.741
		c0.146-1.335,0-2.225-0.075-3.557c0-1.408,0.073-2.519,0.223-4.075l-0.075-3.408c0-1.188,0.075-2,0.075-3.037
		c0-1.188-0.15-2.225-0.15-3.262c0-1.406,0.075-2.369-0.073-3.778c-0.15-1.406-0.15-2.37-0.15-3.778
		c-0.146-4.445-0.369-7.705-0.665-12.15c-0.148-1.185-0.148-1.925-0.148-3.037c0-1.705,0.37-2.223,1.113-3.037
		c0.369-0.37,1.925-1.705,3.406-1.777l5.484-0.075c1.037,0,1.705,0,2.74-0.148c0.888,0,1.555-0.15,2.519-0.15
		c1.408,0,2.519,0.225,3.112,0.592c0.368,0.296,1.034,0.741,1.7,1.705c1.706,2.37,2.669,3.997,4.297,6.517
		c0.37,0.666,0.815,1.037,1.334,1.705l1.334,2.075l1.334,1.85c0.517,1.037,0.815,1.854,1.63,2.741
		c0.666,1.037,1.185,1.557,1.852,2.446l1.853,2.74l2.668,3.483l3.187,4c2.515,3.408,4.665,6.222,6.516,6.222
		c2.075-0.15,3.853-4,4.668-5.187c1.259-2.072,2.446-3.555,3.853-5.703c0.666-1.037,0.887-1.854,1.63-2.89
		c0.887-1.481,1.777-2.371,2.592-3.853c0.666-1.334,1.038-2.223,1.777-3.556c0.888-1.556,1.555-2.668,2.295-4.371
		c0.741-1.557,1.113-2.742,1.925-4.225l1.779-3.037c0.666-1.184,0.741-1.704,1.408-2.221c0.519-0.516,2.075-1.629,3.483-1.629
		c0.815,0,1.408,0.148,2.223,0.073c0.887,0.15,1.556,0.15,2.519,0.075c0.665,0,1.184,0.148,1.997,0.073
		c1.409,0,2.52-0.296,3.928-0.296c0.666,0.15,1.037,0.225,1.556,0.225l0.075,0.516l0.005,0.013L440.038,209.843z"/>
	<path fill="#FFFFFF" d="M399.663,280.368c-0.89,0-1.483-0.37-1.854-0.666c-2.075-1.037-1.852-1.556-3.187-3.334l-1.85-2.37
		c-0.518-0.741-0.962-1.259-1.556-1.925c-0.518-0.668-0.962-1.188-1.629-1.779c-0.371-0.369-0.519-0.665-0.965-1.184
		c-0.813-0.741-1.333-1.185-2.147-2.075c-0.52-0.516-0.816-1.037-1.631-2.221c-0.445-0.592-0.962-1.334-1.556-2.075
		c-0.445,0.445-1.113,1.334-1.037,2.371c0.147,1.556,0.075,1.481,0,3.556c-0.075,1.85-0.518,4.075-0.15,6.37
		c0.297,0.296,0.594,0.518,0.965,0.887c0.369,0.519,0.517,0.816,0.962,1.188c0.665,0.666,1.037,1.188,1.629,1.777
		c0.666,0.666,1.037,1.185,1.556,1.925l1.85,2.298c1.335,1.777,1.037,2.371,3.188,3.334c0.369,0.225,0.962,0.667,1.85,0.667
		c0.15,0,1.706,0,2.89-0.666l0.517-0.665c0.371-0.294,0.52-0.518,0.741-0.888l1.704-2.223l1.185-1.705
		c0.298-0.369,0.742-0.813,1.113-1.11c-1.113,0.52-2.446,0.52-2.592,0.52l0.004-0.005L399.663,280.368z"/>
	<g>
		<path fill="#040000" d="M550.788,260.735l-0.073-2.446v-0.741l-0.075-0.741c-0.369-2.737-1.258-5.554-2.813-8.073
			c1.037-2.147,1.704-4.445,1.85-6.815c0.075-0.815,0.15-2,0.075-3.556c0-0.741,0.075-1.481,0.15-2.74
			c0-0.37,0.075-0.815,0.15-1.259c0.073-0.741,0.223-1.631,0.295-2.742c0.666-9.927-4.741-15.262-7.112-17.409
			c-2.296-2.223-4.741-3.927-7.482-5.038c-4.15-1.854-9.556-2.742-19.854-3.483c-0.89-0.075-1.854-0.075-2.816-0.075h-1.558
			c-0.591-0.075-1.406-0.225-2.445-0.296c-0.741-0.075-1.555-0.075-2.295-0.075c-0.74,0-1.406,0-1.925,0.075h-0.962
			c-0.15,0-0.594,0-0.89-0.075c-0.962-0.073-1.556-0.073-2.815-0.073h-1.63l-0.666,0.075c-0.221,0-0.591,0.073-1.035,0.073
			c-3.262,0.296-6.004,0.518-8.15,1.037c-2.594,0.518-5.112,1.334-8.742,2.887l-1.63,0.667c-0.816,0.294-1.779,0.665-2.962,1.259
			c-0.965,0.445-1.78,0.962-2.3,1.259l-0.516,0.3c-0.15,0.073-0.225,0.148-0.3,0.148c-0.591,0.294-1.555,0.812-2.738,1.629
			l-0.15,0.075l-0.15,0.075c-1.184,0.815-2.962,2.221-4.075,3.037l-1.48,0.592l-2.446,2.887l-0.742,0.89l-0.369,0.371
			c-1.925,1.925-2.59,2.887-4.444,5.556c-1.555,2.075-2.666,3.928-3.332,5.558c0,0.075-0.075,0.15-0.075,0.225
			c-0.37,0.74-0.815,1.704-1.185,2.666l-0.296,0.666l-0.225,0.741c-0.146,0.445-0.293,0.815-0.443,1.334
			c-0.223,0.592-0.516,1.408-0.813,2.371l-0.075,0.15l-0.075,0.148c-0.74,2.516-2.147,9.704-2.369,12.519l-0.073,0.741v0.741
			l0.15,5.259v0.296c-0.075,0.888-0.075,2.296,0.073,4.075c0.075,1.333,0.225,2.444,0.37,3.258c0,0.962,0.075,2.223,0.298,3.779
			v0.223l0.075,0.225c0.146,0.813,0.888,3.775,1.555,5.925c0.518,1.85,1.113,3.257,1.556,4.221c0.075,0.225,0.225,0.445,0.225,0.518
			c0.293,0.813,0.516,1.406,0.662,1.997c1.408,4.077,2.296,5.929,5.481,10.819l0.225,0.296l0.223,0.296
			c0.444,0.592,0.813,1.185,1.184,1.705c0.887,1.26,1.63,2.296,2.446,3.259l0.591,0.667l0.666,0.594
			c0.887,0.815,1.705,1.408,2.296,1.852c0.666,0.666,1.705,1.63,3.112,2.668c1.184,0.965,2.147,1.631,3.038,2.225l0.146,0.147
			l3.556,2.74l0.146,0.15l0.15,0.146c2.815,2.075,4.15,2.816,6.666,3.854c0.298,0.15,0.594,0.225,1.037,0.445l1.483,0.741
			c1.037,0.516,1.853,0.887,2.446,1.11c0.148,0.075,0.221,0.075,0.369,0.15l0.445,0.223l0.445,0.148l0.518,0.225
			c1.409,0.516,2.816,1.11,4.816,1.704c1.703,0.517,3.184,0.812,4.147,0.962c0.296,0.075,0.592,0.075,0.741,0.15l0.445,0.073
			l0.445,0.075c0.37,0.073,0.815,0.148,1.408,0.295c1.408,0.298,3.187,0.816,5.63,0.965c1.705,0.221,3.187,0.221,4.221,0.221h0.595
			l3.112,0.223h0.071c1.705,0.15,3.26,0.225,5.26,0.225c2.815,0.22,4.89,0.368,6.371,0.368c0.666,0,1.334,0,1.925-0.075h0.15
			c4.816-0.516,12.003-3.405,16.15-9.63l0.891-1.259l0.593-1.333v-0.075c0.297-0.593,0.89-2.075,1.335-4l0.075-0.225l0.073-0.22
			c0.446-2.075,1.631-12.668,1.705-13.705c0.075-0.962,0.075-1.777,0.075-2.371c0.148-0.741,0.369-1.775,0.444-3.11
			c0.075-0.594,0.075-1.483,0.075-2.52c0-0.15,0-0.296,0.075-0.445c0.073-0.741,0.223-1.63,0.295-2.74
			c0.148-1.705,0.073-3.038,0.073-4.225v-0.516c0.075-0.962,0.15-1.929,0.298-3.112c0.15-1.113,0.296-2.446,0.37-4
			c0.073-1.259,0.148-2.592,0.148-4.296l0.37-5.112l0.075-0.74v-0.887l-0.009-0.013L550.788,260.735z"/>
		<path fill="#FFFFFF" d="M522.638,305.48c-1.853,0-3.038-0.073-4.89-0.223l-3.188-0.225c-1.331-0.071-2.812,0.075-4.146-0.146
			c-2.295-0.15-3.777-0.741-6.075-1.185c-1.406-0.37-2.518-0.445-4-0.887c-1.704-0.519-2.737-0.962-4.295-1.554
			c-0.962-0.446-1.556-0.594-2.37-1.037l-1.777-0.89c-2.815-1.333-2.37-0.813-5.188-2.813l-3.85-2.965
			c-1.188-0.815-2-1.334-3.112-2.296c-1.038-0.666-1.63-1.481-2.519-2.296c-0.591-0.444-1.038-0.665-1.629-1.184
			c-0.592-0.667-1.705-2.298-2.887-4c-3.185-4.89-2.815-4.89-4.594-9.633c-0.517-1.406-1.037-2.295-1.481-3.777
			c-0.225-0.517-1.113-3.779-1.185-4.221c-0.15-1.112-0.075-2-0.15-3.037c-0.148-0.965-0.369-1.706-0.444-2.816
			c-0.148-1.334,0.075-2.296,0-3.556l-0.148-5.26c0.075-1.482,1.259-7.484,1.705-9.038c0.445-1.409,0.887-2.373,1.408-3.929
			c0.445-1.035,1.259-2.74,1.334-2.813c0.075-0.15,0.296-0.519,0.517-0.89c-0.073,0-0.073,0.075-0.147,0.075l-1.038,1.259
			c-2,2.075-1.706,1.63-3.78,4.669c-0.815,1.035-1.481,2.075-1.63,2.444c0,0.15-0.888,1.777-1.333,2.815
			c-0.445,1.556-0.887,2.519-1.408,3.928c-0.445,1.555-1.63,7.629-1.705,9.038l0.15,5.257c0,1.259-0.15,2.223,0,3.556
			c0.075,1.112,0.225,1.852,0.445,2.815c0.075,1.11,0,1.925,0.15,3.037c0.075,0.516,0.962,3.778,1.188,4.22
			c0.368,1.481,0.96,2.371,1.48,3.779c1.775,4.813,1.406,4.74,4.592,9.63c1.259,1.705,2.37,3.334,2.888,4
			c0.594,0.517,1.037,0.813,1.631,1.184c0.887,0.816,1.481,1.557,2.519,2.298c1.185,0.962,2,1.481,3.112,2.296l3.85,2.963
			c2.816,2,2.373,1.482,5.188,2.816l1.777,0.887c0.815,0.446,1.408,0.594,2.37,1.038c1.556,0.594,2.592,1.037,4.296,1.557
			c1.408,0.445,2.519,0.517,4,0.887c2.296,0.371,3.704,0.965,6.075,1.188c1.334,0.223,2.815,0.073,4.15,0.147l3.185,0.225
			c1.85,0.146,3.038,0.22,4.888,0.22c2.448,0.15,5.484,0.37,6.225,0.296c1.331-0.15,3.85-1.185,4.963-2.815
			c0.146-0.37,0.444-0.962,0.591-1.705c0.075-0.295,0.225-1.483,0.445-3.038c-0.887,0.075-3.779-0.15-6.15-0.296l-0.003-0.003
			L522.638,305.48z"/>
		<path fill="#FFFFFF" d="M540.938,260.884c0,1.334-0.075,2.296-0.15,3.63c-0.225,3.037-0.593,5.112-0.666,8.075
			c0,1.481,0.075,2.446,0,3.779c-0.073,1.481-0.294,2.52-0.369,4c0.075,0.594,0.075,1.113,0,1.706
			c-0.075,1.11-0.37,1.702-0.445,2.813c-0.075,0.965,0,1.706-0.075,2.669c-0.073,0.962-1.258,10.668-1.406,11.556
			c-0.148,0.741-0.444,1.334-0.591,1.705c-1.113,1.625-3.63,2.663-4.963,2.813c-0.741,0.073-3.779-0.15-6.225-0.298
			c-1.85,0-3.035-0.075-4.888-0.225l-3.188-0.22c-1.331-0.075-2.813,0.075-4.146-0.15c-2.296-0.148-3.779-0.74-6.075-1.184
			c-1.481-0.371-2.519-0.446-4-0.89c-1.705-0.517-2.74-0.962-4.296-1.555c-0.962-0.445-1.556-0.592-2.37-1.038l-1.777-0.887
			c-2.815-1.335-2.37-0.816-5.188-2.816l-3.85-2.962c-1.188-0.815-2-1.334-3.112-2.296c-1.038-0.666-1.63-1.481-2.519-2.296
			c-0.592-0.445-1.038-0.666-1.63-1.185c-0.592-0.666-1.705-2.296-2.887-4c-3.188-4.89-2.818-4.89-4.595-9.631
			c-0.517-1.408-1.037-2.296-1.481-3.779c-0.225-0.517-1.113-3.777-1.185-4.221c-0.15-1.112-0.075-2-0.15-3.037
			c-0.15-0.962-0.37-1.705-0.445-2.815c-0.146-1.333,0.075-2.295,0-3.555l-0.146-5.262c0.075-1.48,1.259-7.481,1.705-9.038
			c0.444-1.406,0.887-2.37,1.406-3.925c0.446-1.037,1.26-2.741,1.335-2.815c0.148-0.37,0.815-1.408,1.63-2.446
			c2.075-3.038,1.779-2.591,3.779-4.666l1.037-1.26c0.225-0.075,0.296-0.225,0.517-0.445c0,0,3.112-2.371,4.67-3.481
			c0.666-0.446,1.185-0.667,1.925-1.113c0.742-0.296,1.188-0.741,1.927-1.113c1.038-0.519,1.259-0.519,1.777-0.74l2-0.816
			c3.037-1.259,4.668-1.777,6-2c1.631-0.37,5.928-0.666,7.41-0.815c1.556,0,1.705,0,2.593,0.075
			c1.113,0.073,1.852,0.148,2.815,0.073c1.259-0.075,2.075-0.075,3.334,0c1.113,0.075,1.854,0.225,3.037,0.37
			c1.335,0,2.448-0.075,3.78,0c6.816,0.445,12.15,1.113,14.816,2.296c1.037,0.444,2,1.11,3.037,2.147
			c1.409,1.185,2.446,2.223,2.223,4.962c-0.073,1.481-0.294,2.52-0.369,4c-0.15,1.558-0.225,2.816-0.225,4.372
			c0.075,0.741,0,1.259,0,1.925c-0.071,0.816-0.813,3.037-3.405,2.816c-0.371,0-3.262-0.594-3.631-0.594s-0.444-0.15-0.813-0.296
			c-0.818-0.15-2.075-0.518-2.075-0.518c-0.965-0.225-1.557-0.15-2.448-0.296c-0.962-0.296-1.775-0.518-2.74-0.666l-1.705-0.372
			c-1.702-0.518-2.295-0.887-5.332-1.113c-0.963-0.073-1.852-0.148-2.888-0.295c-0.594-0.075-1.112-0.225-1.706-0.225
			c-0.741-0.071-0.221,0-1.11,0.075l-4.445,0.446l-2.221,0.592c-1.113,0.298-1.854,0.225-2.962,0.519
			c-1.78,0.594-4.67,2.371-4.818,2.446l-1.706,1.259c-0.148,0-1.406,0.887-2.075,1.704c-0.663,0.815-0.663,0.962-1.258,1.852
			c-1.631,2.446-1.483,2.223-2.298,4.741c-1.113,3.11-1.185,4.221-1.556,9.481c-0.075,1.481,0,1.63,0.296,2.962l0.225,1.706
			c0.071,0.887,0.367,1.406,0.443,2.223c0.37,1.629,0.37,2,0.815,2.888c0.445,1.11,1.925,3.555,2.668,4.37l1.556,1.925
			c0.665,0.816,1.11,1.557,1.925,2.225c0.666,0.665,1.408,0.962,2.075,1.48c2.072,1.63,1.85,1.481,4.888,3.187
			c1.925,0.962,2.592,1.554,3.704,1.85c0.962,0.296,2.815,0.296,3.853,0.517c1.185,0.225,2.15,0.371,3.556,0.52
			c1.705,0.15,4.669-0.075,5.779-2.446c0.52-0.815,0.594-1.777,0.667-2.668c0.37-1.334,0.296-1.113,0.37-2.296
			c0.075-1.482,0.148-3.631,0.148-3.929l-0.296-1.259c-0.15-0.887-0.15-1.259-0.518-1.777c-0.075-0.37-0.742-1.185-1.706-1.556
			c-0.962-0.445-2.815-0.592-2.815-0.592c-0.593-0.075-1.113-0.223-1.852-0.223l-0.888-0.075c-0.15,0-0.15,0-0.445-0.148
			c-1.63-0.962-1.407-3.187-1.407-3.187c0.225-2.888,0.741-4.963,0.887-7.925c0.075-0.741,0-1.63,0.075-2.446
			c0.225-3.038,2.075-4.666,3.853-4.518c0.592,0.075,1.112,0.225,1.705,0.225l1.702,0.148c0.741,0.15,1.185,0.225,1.925,0.225
			l1.706,0.148c1.482,0.075,2.518,0.298,4,0.371c2.593,0.15,4.444-0.075,6.963,0.15c2.225,0.148,5.559,0.665,6.077,4.37l0.075,2.445
			l-0.15,5.556l-0.004,0.004L540.938,260.884z"/>
	</g>
	<g>
		<path fill="#040000" d="M344.543,273.255c0-0.591-0.221-1.184-0.518-1.704v-0.592c0.225-0.591,0.296-1.184,0.225-1.775
			c-0.075-0.594-0.3-1.188-0.669-1.631c0-0.15-0.075-0.371-0.075-0.52c0.15-0.592,0.223-1.185,0.075-1.777
			c-0.15-0.592-0.371-1.113-0.742-1.556c-0.073-0.225-0.073-0.37-0.148-0.518c0.15-0.591,0.15-1.184,0-1.775
			c-0.15-0.591-0.445-1.112-0.815-1.482c-0.075-0.225-0.15-0.37-0.15-0.592c0.075-0.591,0.075-1.184-0.146-1.703
			c-0.221-0.592-0.518-1.037-0.962-1.408c-0.075-0.225-0.15-0.37-0.225-0.592c0.075-0.592,0-1.185-0.293-1.705
			c-0.225-0.518-0.595-0.962-1.04-1.333c-0.075-0.225-0.15-0.37-0.298-0.592c0-0.592-0.148-1.185-0.37-1.705
			c-0.296-0.517-0.666-0.962-1.113-1.259c-0.073-0.15-0.223-0.37-0.295-0.518c-0.075-0.595-0.225-1.113-0.518-1.632
			c-0.297-0.518-0.741-0.887-1.26-1.185c-0.075-0.15-0.225-0.37-0.296-0.518c-0.075-0.594-0.295-1.113-0.592-1.631
			c-0.37-0.518-0.815-0.887-1.334-1.11c-0.15-0.15-0.225-0.298-0.371-0.446c-0.148-0.592-0.37-1.113-0.741-1.556
			c-0.37-0.445-0.815-0.815-1.408-1.037c-0.148-0.15-0.294-0.296-0.369-0.445c-0.15-0.592-0.446-1.113-0.816-1.556
			s-0.887-0.741-1.481-0.962l-0.445-0.445c-0.225-0.516-0.518-1.037-0.962-1.48c-0.445-0.37-0.962-0.666-1.483-0.815
			c-0.148-0.148-0.294-0.294-0.444-0.369c-0.225-0.519-0.592-1.037-1.037-1.409c-0.445-0.369-0.962-0.591-1.556-0.741
			c-0.148-0.148-0.296-0.221-0.518-0.369c-0.298-0.518-0.667-0.962-1.113-1.334c-0.445-0.296-1.037-0.517-1.556-0.592
			c-0.148-0.15-0.369-0.225-0.516-0.37c-0.298-0.518-0.741-0.887-1.188-1.185c-0.517-0.296-1.035-0.445-1.629-0.518
			c-0.225-0.15-0.371-0.225-0.594-0.298c-0.298-0.445-0.742-0.815-1.26-1.113c-0.52-0.223-1.113-0.369-1.631-0.369
			c-0.225-0.075-0.37-0.225-0.592-0.296c-0.37-0.445-0.815-0.815-1.334-1.037c-0.517-0.225-1.113-0.296-1.705-0.296l-0.665-0.225
			c-0.37-0.37-0.887-0.741-1.408-0.887c-0.445-0.15-0.962-0.223-1.481-0.15h-0.225l-0.665-0.223
			c-0.444-0.369-0.887-0.665-1.481-0.812c-0.444-0.075-0.813-0.15-1.259-0.075c-0.15,0-0.296,0.075-0.445,0.075
			c-0.225-0.075-0.445-0.075-0.666-0.15c-0.445-0.37-0.962-0.592-1.556-0.666c-0.296-0.075-0.666-0.075-0.962-0.075
			c-0.223,0-0.445,0.075-0.666,0.15c-0.225-0.075-0.446-0.075-0.667-0.075c-0.446-0.296-0.962-0.517-1.558-0.592h-0.741
			c-0.296,0-0.592,0.075-0.888,0.225c-0.225,0-0.446-0.075-0.667-0.075c-0.518-0.298-1.037-0.446-1.63-0.519
			c-0.594,0-1.113,0.075-1.631,0.295h-0.665c-0.518-0.221-1.037-0.369-1.63-0.369s-1.113,0.15-1.631,0.446h-0.666
			c-0.518-0.225-1.113-0.296-1.705-0.225c-0.591,0.075-1.11,0.225-1.629,0.521c-0.225,0-0.445,0.075-0.666,0.075
			c-0.445-0.15-0.887-0.223-1.408-0.15h-0.225c-0.59,0.075-1.109,0.298-1.554,0.667c-0.225,0.075-0.445,0.075-0.666,0.15
			c-0.37-0.075-0.815-0.15-1.185-0.075c-0.15,0-0.371,0.075-0.52,0.075c-0.592,0.148-1.037,0.369-1.481,0.74
			c-0.223,0.075-0.444,0.15-0.665,0.15c-0.294-0.075-0.591-0.075-0.962-0.075c-0.225,0-0.517,0.075-0.741,0.15
			c-0.518,0.148-1.038,0.444-1.408,0.887l-0.667,0.225h-0.666c-0.369,0-0.665,0.071-0.962,0.22c-0.518,0.225-0.962,0.52-1.334,0.962
			c-0.225,0.075-0.445,0.225-0.666,0.298h-0.444c-0.445,0.075-0.815,0.15-1.185,0.296c-0.518,0.225-0.962,0.594-1.334,1.037
			c-0.221,0.075-0.444,0.225-0.591,0.298h-0.225c-0.516,0.075-1.034,0.225-1.405,0.445c-0.518,0.296-0.887,0.666-1.184,1.113
			c-0.225,0.15-0.371,0.223-0.594,0.37c-0.594,0.075-1.113,0.225-1.631,0.592c-0.445,0.296-0.887,0.741-1.185,1.259
			c-0.15,0.15-0.37,0.225-0.518,0.372c-0.594,0.075-1.113,0.296-1.556,0.666c-0.444,0.371-0.813,0.816-1.035,1.335
			c-0.15,0.15-0.371,0.296-0.52,0.445c-0.594,0.15-1.113,0.37-1.482,0.741c-0.445,0.37-0.741,0.887-0.962,1.408l-0.445,0.445
			c-0.518,0.148-1.035,0.444-1.481,0.887c-0.444,0.445-0.741,0.962-0.887,1.481l-0.445,0.445c-0.518,0.225-1.037,0.519-1.408,0.965
			c-0.369,0.444-0.665,0.962-0.74,1.555c-0.15,0.15-0.225,0.296-0.37,0.445c-0.518,0.225-0.962,0.592-1.334,1.113
			c-0.369,0.443-0.591,1.034-0.665,1.628c-0.15,0.15-0.225,0.296-0.37,0.518c-0.52,0.298-0.962,0.667-1.26,1.188
			c-0.298,0.518-0.519,1.035-0.519,1.629c-0.075,0.15-0.225,0.371-0.298,0.519c-0.518,0.298-0.887,0.741-1.185,1.26
			c-0.298,0.517-0.446,1.113-0.446,1.705c-0.075,0.148-0.15,0.369-0.298,0.517c-0.445,0.371-0.815,0.816-1.113,1.335
			c-0.223,0.518-0.369,1.113-0.295,1.705c-0.075,0.221-0.15,0.369-0.225,0.591c-0.444,0.369-0.813,0.887-0.962,1.406
			c-0.225,0.517-0.296,1.113-0.225,1.705c-0.071,0.221-0.146,0.369-0.22,0.591c-0.445,0.444-0.741,0.887-0.887,1.481
			c-0.15,0.591-0.225,1.11-0.075,1.703c-0.075,0.225-0.075,0.37-0.15,0.592c-0.37,0.445-0.666,0.962-0.815,1.556
			c-0.15,0.592-0.15,1.185,0,1.705c-0.075,0.221-0.075,0.369-0.15,0.591c-0.369,0.445-0.591,0.962-0.665,1.556
			c-0.075,0.594,0,1.188,0.15,1.705c0,0.223-0.075,0.369-0.075,0.591c-0.298,0.518-0.519,1.037-0.594,1.63
			c-0.075,0.592,0.075,1.185,0.296,1.705v0.592c-0.296,0.518-0.445,1.113-0.445,1.705c0,0.591,0.15,1.184,0.445,1.703v0.52
			c-0.225,0.517-0.37,1.113-0.37,1.777c0,0.592,0.221,1.185,0.518,1.705v0.591c-0.225,0.592-0.296,1.185-0.225,1.777
			c0.075,0.591,0.3,1.184,0.669,1.629c0,0.15,0.075,0.37,0.075,0.517c-0.15,0.594-0.223,1.188-0.075,1.779
			c0.15,0.592,0.371,1.112,0.742,1.63c0.073,0.15,0.073,0.371,0.148,0.519c-0.15,0.594-0.15,1.188,0,1.779
			c0.15,0.592,0.445,1.113,0.815,1.481c0.075,0.225,0.15,0.37,0.15,0.592c-0.075,0.594-0.075,1.188,0.148,1.705
			c0.221,0.594,0.518,1.037,0.962,1.409c0.075,0.225,0.15,0.37,0.225,0.592c-0.075,0.595,0,1.188,0.293,1.706
			c0.225,0.517,0.594,1.037,1.037,1.334c0.075,0.225,0.15,0.37,0.3,0.592c0,0.593,0.148,1.185,0.369,1.705
			c0.296,0.518,0.666,0.962,1.113,1.333c0.073,0.15,0.223,0.371,0.295,0.52c0,0.592,0.225,1.113,0.518,1.63
			c0.298,0.518,0.741,0.962,1.26,1.259c0.075,0.15,0.225,0.371,0.296,0.52c0.073,0.591,0.294,1.11,0.591,1.629
			c0.37,0.518,0.815,0.888,1.334,1.113c0.15,0.147,0.225,0.296,0.37,0.445c0.15,0.59,0.37,1.109,0.741,1.554
			c0.371,0.445,0.816,0.815,1.409,1.038c0.148,0.15,0.294,0.296,0.369,0.445c0.15,0.591,0.445,1.11,0.815,1.48
			c0.37,0.445,0.887,0.741,1.481,0.962l0.444,0.445c0.225,0.591,0.518,1.035,0.962,1.481c0.445,0.369,0.962,0.665,1.556,0.813
			c0.15,0.15,0.296,0.297,0.445,0.371c0.225,0.518,0.592,1.038,1.037,1.408c0.445,0.37,0.962,0.592,1.556,0.741
			c0.15,0.15,0.298,0.225,0.519,0.371c0.298,0.517,0.667,0.962,1.113,1.332c0.445,0.296,1.037,0.518,1.63,0.592
			c0.147,0.15,0.369,0.225,0.516,0.37c0.298,0.518,0.741,0.887,1.188,1.185c0.518,0.298,1.035,0.446,1.629,0.519
			c0.225,0.075,0.37,0.225,0.592,0.298c0.371,0.445,0.741,0.887,1.26,1.112c0.518,0.295,1.113,0.369,1.705,0.369
			c0.221,0.075,0.369,0.225,0.591,0.296c0.37,0.445,0.815,0.815,1.334,1.037c0.517,0.225,1.11,0.296,1.702,0.296
			c0.225,0.073,0.445,0.147,0.592,0.221c0.37,0.444,0.887,0.74,1.408,0.887c0.444,0.15,0.962,0.225,1.481,0.15h0.22l0.666,0.223
			c0.444,0.369,0.962,0.665,1.48,0.813c0.445,0.075,0.815,0.15,1.259,0.075c0.15,0,0.3-0.075,0.448-0.075
			c0.221,0.075,0.444,0.075,0.665,0.15c0.446,0.37,0.962,0.592,1.556,0.666c0.296,0.075,0.666,0.075,1.038,0.075
			c0.225,0,0.445-0.075,0.666-0.15c0.225,0,0.445,0.075,0.666,0.075c0.446,0.296,1.037,0.517,1.557,0.592h0.741
			c0.295,0,0.665-0.075,0.962-0.225c0.221,0,0.444,0.075,0.665,0.075c0.518,0.296,1.035,0.445,1.629,0.517h0.518
			c0.37,0,0.815-0.147,1.113-0.294h0.666c0.518,0.221,1.037,0.369,1.63,0.369h0.225c0.516-0.075,0.962-0.225,1.331-0.445h0.666
			c0.517,0.221,1.113,0.294,1.705,0.221c0.59-0.075,1.109-0.225,1.628-0.519c0.221,0,0.444-0.075,0.665-0.075
			c0.445,0.15,0.887,0.225,1.408,0.15h0.225c0.59-0.075,1.109-0.298,1.554-0.668c0.225-0.073,0.445-0.073,0.666-0.148
			c0.37,0.075,0.815,0.15,1.185,0.075c0.15,0,0.37-0.075,0.517-0.075c0.594-0.15,1.037-0.37,1.481-0.741
			c0.225-0.075,0.446-0.075,0.667-0.15c0.296,0.075,0.592,0.075,0.962,0.075c0.223,0,0.519-0.075,0.742-0.15
			c0.519-0.147,1.037-0.444,1.408-0.887l0.666-0.225h0.666c0.37,0,0.666-0.071,0.962-0.22c0.519-0.225,0.962-0.518,1.334-0.962
			c0.225-0.075,0.446-0.223,0.668-0.295h0.445c0.445-0.075,0.815-0.15,1.185-0.371c0.517-0.223,0.962-0.591,1.334-1.038
			c0.225-0.073,0.37-0.223,0.592-0.295h0.223c0.517-0.075,1.035-0.225,1.406-0.445c0.517-0.296,0.887-0.666,1.259-1.113
			c0.225-0.146,0.371-0.22,0.594-0.367c0.592-0.075,1.113-0.225,1.63-0.593c0.516-0.296,0.887-0.741,1.109-1.259
			c0.225-0.15,0.37-0.297,0.592-0.371c0.594-0.075,1.113-0.296,1.557-0.666c0.446-0.371,0.816-0.816,1.113-1.335
			c0.148-0.15,0.37-0.296,0.518-0.445c0.594-0.15,1.113-0.371,1.481-0.742c0.446-0.37,0.741-0.888,0.962-1.408l0.446-0.445
			c0.518-0.15,1.038-0.445,1.481-0.887c0.445-0.446,0.666-0.965,0.887-1.483l0.446-0.445c0.517-0.225,1.037-0.518,1.408-0.962
			c0.37-0.445,0.666-0.962,0.741-1.556c0.15-0.15,0.225-0.296,0.37-0.445c0.516-0.223,0.962-0.591,1.333-1.11
			c0.37-0.445,0.592-1.037,0.666-1.63c0.075-0.15,0.223-0.296,0.37-0.445c0.518-0.298,0.962-0.667,1.259-1.188
			c0.298-0.518,0.52-1.035,0.52-1.629c0.073-0.15,0.223-0.371,0.295-0.519c0.518-0.298,0.888-0.741,1.185-1.26
			c0.296-0.518,0.445-1.113,0.445-1.705c0.075-0.148,0.225-0.369,0.296-0.518c0.445-0.371,0.815-0.816,1.113-1.335
			c0.223-0.52,0.369-1.113,0.295-1.705c0.075-0.15,0.148-0.37,0.225-0.593c0.443-0.37,0.813-0.887,1.034-1.408
			c0.225-0.52,0.297-1.113,0.225-1.705c0.073-0.225,0.148-0.37,0.223-0.592c0.369-0.445,0.741-0.887,0.888-1.481
			c0.147-0.592,0.225-1.185,0.075-1.705c0.073-0.22,0.073-0.368,0.148-0.59c0.369-0.445,0.665-0.962,0.813-1.556
			c0.15-0.592,0.075-1.185-0.073-1.705c0.073-0.223,0.073-0.37,0.148-0.592c0.37-0.445,0.592-0.962,0.666-1.556
			c0.073-0.591,0-1.184-0.15-1.704c0-0.221,0.075-0.369,0.075-0.591c0.294-0.518,0.517-1.035,0.591-1.629
			c0.075-0.591-0.075-1.184-0.296-1.704v-0.518c0.298-0.517,0.446-1.113,0.446-1.705s-0.15-1.185-0.446-1.704v-0.517
			c-0.073-0.816,0.075-1.409,0-2"/>
		<path fill="#FFFFFF" d="M283.129,226.73c-27.338,2.448-47.563,26.596-45.116,54.008c2.446,27.337,26.595,47.562,54.006,45.117
			c27.337-2.446,47.563-26.595,45.116-54.006c-2.516-27.337-26.669-47.562-54.006-45.117"/>
		<path fill="#040000" d="M343.063,256.364c0-0.592-0.223-1.185-0.519-1.705v-0.591c0.225-0.592,0.296-1.185,0.225-1.777
			c-0.075-0.592-0.3-1.185-0.669-1.63c0-0.15-0.075-0.371-0.075-0.52c0.15-0.592,0.223-1.185,0.075-1.777
			c-0.15-0.592-0.371-1.113-0.742-1.556c-0.075-0.223-0.075-0.369-0.147-0.591c0.147-0.594,0.147-1.188,0-1.779
			c-0.15-0.592-0.445-1.113-0.815-1.481c-0.075-0.225-0.147-0.371-0.147-0.594c0.075-0.592,0.075-1.185-0.15-1.705
			c-0.22-0.59-0.516-1.034-0.962-1.405c-0.073-0.225-0.146-0.37-0.223-0.592c0.075-0.592,0-1.185-0.294-1.705
			c-0.225-0.518-0.594-0.962-1.038-1.333c-0.075-0.225-0.15-0.37-0.3-0.592c0-0.592-0.147-1.185-0.369-1.705
			c-0.296-0.518-0.666-0.962-1.113-1.259c-0.073-0.15-0.223-0.37-0.295-0.518c-0.075-0.594-0.225-1.113-0.517-1.631
			c-0.298-0.52-0.741-0.89-1.26-1.188c-0.075-0.148-0.225-0.369-0.296-0.517c-0.073-0.592-0.294-1.113-0.591-1.63
			c-0.37-0.518-0.815-0.887-1.334-1.113c-0.15-0.148-0.225-0.296-0.37-0.519c-0.15-0.592-0.371-1.113-0.742-1.556
			s-0.815-0.815-1.408-1.037c-0.147-0.15-0.294-0.296-0.369-0.445c-0.15-0.592-0.445-1.113-0.815-1.556
			c-0.445-0.446-0.887-0.742-1.481-0.965l-0.445-0.444c-0.225-0.518-0.518-1.037-0.962-1.481c-0.445-0.37-0.962-0.666-1.483-0.815
			c-0.148-0.15-0.294-0.296-0.444-0.37c-0.223-0.517-0.591-1.037-1.037-1.408c-0.444-0.37-0.962-0.592-1.555-0.741
			c-0.15-0.148-0.296-0.223-0.518-0.369c-0.297-0.518-0.667-0.962-1.113-1.334c-0.445-0.294-1.037-0.518-1.556-0.591
			c-0.15-0.15-0.37-0.225-0.517-0.37c-0.298-0.519-0.741-0.89-1.26-1.188c-0.517-0.295-1.037-0.444-1.63-0.516
			c-0.223-0.075-0.369-0.225-0.591-0.298c-0.296-0.445-0.741-0.815-1.259-1.113c-0.52-0.223-1.113-0.369-1.631-0.369
			c-0.225-0.073-0.37-0.221-0.592-0.294c-0.368-0.446-0.813-0.816-1.331-1.037c-0.517-0.225-1.113-0.298-1.705-0.298l-0.663-0.225
			c-0.37-0.368-0.887-0.74-1.408-0.887c-0.517-0.148-0.962-0.223-1.481-0.148h-0.225l-0.665-0.225
			c-0.445-0.368-0.887-0.663-1.481-0.813c-0.445-0.075-0.815-0.15-1.259-0.075c-0.15,0-0.298,0-0.446,0.075
			c-0.223-0.075-0.445-0.075-0.666-0.15c-0.445-0.37-0.962-0.592-1.556-0.666c-0.297-0.073-0.667-0.073-0.962-0.073
			c-0.225,0-0.446,0.075-0.668,0.15c-0.225-0.075-0.445-0.075-0.666-0.075c-0.445-0.296-1.037-0.517-1.556-0.592h-0.741
			c-0.296,0-0.592,0.073-0.962,0.221c-0.223,0-0.445,0-0.666-0.075c-0.517-0.293-1.037-0.441-1.63-0.516
			c-0.591,0-1.11,0.075-1.629,0.298h-0.666c-0.517-0.225-1.037-0.37-1.63-0.37s-1.113,0.15-1.63,0.445h-0.666
			c-0.52-0.225-1.113-0.296-1.705-0.296c-0.594,0.075-1.113,0.225-1.631,0.518c-0.225,0-0.445,0.075-0.666,0.075
			c-0.445-0.15-0.962-0.225-1.408-0.15c-0.075,0.003-0.15,0.003-0.225,0.003c-0.59,0.073-1.109,0.295-1.554,0.665
			c-0.225,0.073-0.445,0.073-0.666,0.148c-0.369-0.075-0.813-0.15-1.184-0.075c-0.15,0-0.37,0.075-0.517,0.075
			c-0.595,0.15-1.04,0.37-1.483,0.741c-0.225,0.075-0.446,0.15-0.667,0.15c-0.296-0.075-0.592-0.075-0.962-0.075
			c-0.223,0-0.519,0.075-0.742,0.15c-0.518,0.148-1.035,0.444-1.406,0.887l-0.666,0.221h-0.666c-0.37,0-0.666,0.075-0.962,0.225
			c-0.519,0.22-1.038,0.516-1.408,0.962c-0.225,0.073-0.446,0.148-0.667,0.295h-0.445c-0.445,0.075-0.815,0.15-1.185,0.296
			c-0.518,0.225-0.962,0.592-1.334,1.037c-0.225,0.075-0.445,0.225-0.592,0.296h-0.225c-0.517,0.075-1.035,0.225-1.406,0.446
			c-0.517,0.294-0.887,0.662-1.185,1.109c-0.225,0.15-0.37,0.225-0.592,0.37c-0.592,0.075-1.113,0.225-1.63,0.592
			c-0.446,0.296-0.89,0.741-1.188,1.259c-0.148,0.15-0.369,0.225-0.516,0.375c-0.594,0.073-1.113,0.295-1.558,0.665
			c-0.445,0.37-0.812,0.815-1.037,1.334c-0.148,0.148-0.369,0.295-0.516,0.444c-0.594,0.15-1.113,0.37-1.481,0.741
			c-0.446,0.37-0.741,0.887-0.962,1.408l-0.446,0.444c-0.518,0.148-1.037,0.444-1.481,0.887c-0.444,0.444-0.741,0.887-0.887,1.481
			l-0.446,0.445c-0.518,0.225-1.037,0.519-1.408,0.965c-0.369,0.445-0.665,0.962-0.741,1.556c-0.148,0.148-0.221,0.294-0.369,0.444
			c-0.519,0.225-0.965,0.592-1.335,1.113c-0.37,0.444-0.592,1.037-0.666,1.629c-0.075,0.15-0.225,0.298-0.371,0.52
			c-0.518,0.298-0.962,0.668-1.259,1.188c-0.298,0.516-0.52,1.037-0.52,1.629c-0.15,0.15-0.225,0.37-0.296,0.518
			c-0.518,0.298-0.887,0.741-1.185,1.26c-0.296,0.518-0.445,1.113-0.445,1.705c-0.075,0.146-0.15,0.368-0.298,0.516
			c-0.445,0.37-0.815,0.815-1.113,1.334c-0.223,0.518-0.369,1.113-0.295,1.705c-0.073,0.148-0.148,0.369-0.221,0.591
			c-0.446,0.37-0.816,0.887-0.965,1.408c-0.221,0.518-0.294,1.113-0.221,1.705c-0.073,0.225-0.148,0.37-0.223,0.592
			c-0.369,0.446-0.741,0.89-0.888,1.483c-0.15,0.592-0.225,1.113-0.075,1.705c-0.075,0.221-0.075,0.369-0.15,0.591
			c-0.369,0.444-0.665,0.962-0.813,1.555c-0.15,0.592-0.075,1.185,0.073,1.705c-0.075,0.223-0.075,0.37-0.15,0.592
			c-0.369,0.445-0.591,0.962-0.665,1.556c-0.075,0.591,0,1.184,0.15,1.704c0,0.221-0.075,0.369-0.075,0.591
			c-0.296,0.52-0.518,1.037-0.592,1.631c-0.075,0.594,0.075,1.188,0.296,1.706v0.591c-0.295,0.517-0.444,1.113-0.444,1.705
			c0,0.591,0.15,1.184,0.445,1.702v0.518c-0.222,0.52-0.369,1.113-0.369,1.705s0.225,1.185,0.518,1.705v0.591
			c-0.223,0.592-0.295,1.188-0.223,1.777c0.075,0.592,0.296,1.185,0.666,1.63c0,0.148,0.075,0.369,0.075,0.518
			c-0.15,0.592-0.225,1.185-0.075,1.777c0.15,0.593,0.37,1.113,0.741,1.63c0,0.15,0.075,0.37,0.15,0.517
			c-0.15,0.594-0.15,1.188,0,1.779c0.147,0.594,0.444,1.112,0.812,1.481c0.075,0.225,0.15,0.371,0.15,0.594
			c-0.075,0.592-0.075,1.185,0.15,1.705c0.223,0.591,0.516,1.035,0.962,1.406c0.073,0.225,0.148,0.371,0.221,0.594
			c-0.073,0.592,0,1.185,0.298,1.705c0.225,0.519,0.592,1.037,1.037,1.334c0.075,0.225,0.15,0.37,0.296,0.592
			c0,0.594,0.15,1.188,0.37,1.706c0.296,0.518,0.666,0.962,1.113,1.333c0.073,0.15,0.223,0.371,0.295,0.519
			c0.073,0.594,0.221,1.113,0.518,1.631c0.296,0.518,0.741,0.962,1.259,1.259c0.15,0.15,0.225,0.371,0.298,0.52
			c0.075,0.592,0.298,1.113,0.594,1.63c0.37,0.517,0.815,0.887,1.334,1.112c0.15,0.148,0.225,0.295,0.371,0.444
			c0.148,0.592,0.369,1.113,0.74,1.556c0.37,0.445,0.815,0.815,1.408,1.037c0.15,0.15,0.296,0.296,0.37,0.445
			c0.15,0.592,0.445,1.113,0.815,1.556c0.371,0.444,0.89,0.741,1.481,0.962l0.448,0.445c0.221,0.592,0.518,1.038,0.962,1.481
			c0.445,0.369,0.962,0.665,1.481,0.812c0.15,0.15,0.296,0.295,0.445,0.37c0.223,0.518,0.591,1.037,1.037,1.408
			c0.444,0.371,0.962,0.594,1.555,0.741c0.15,0.15,0.298,0.225,0.52,0.371c0.296,0.518,0.666,0.962,1.113,1.334
			c0.444,0.295,1.037,0.516,1.629,0.591c0.15,0.15,0.37,0.225,0.518,0.37c0.298,0.516,0.741,0.888,1.188,1.183
			c0.518,0.296,1.035,0.445,1.629,0.518c0.225,0.075,0.37,0.225,0.592,0.298c0.37,0.445,0.741,0.887,1.259,1.112
			c0.521,0.295,1.113,0.369,1.706,0.369c0.225,0.075,0.37,0.225,0.592,0.296c0.369,0.445,0.813,0.815,1.333,1.037
			c0.517,0.225,1.113,0.296,1.705,0.296c0.221,0.075,0.444,0.15,0.591,0.225c0.37,0.443,0.888,0.74,1.408,0.887
			c0.516,0.148,0.962,0.223,1.48,0.148h0.225l0.663,0.225c0.446,0.367,0.965,0.662,1.483,0.812c0.445,0.073,0.815,0.148,1.259,0.073
			c0.15,0,0.298-0.075,0.446-0.075c0.221,0.075,0.444,0.075,0.665,0.15c0.445,0.369,0.962,0.591,1.556,0.665
			c0.298,0.075,0.667,0.075,1.037,0.075c0.225,0,0.446-0.075,0.668-0.15c0.225,0.073,0.445,0.073,0.666,0.073
			c0.446,0.296,1.037,0.517,1.556,0.592h0.741c0.296,0,0.592-0.075,0.887-0.225c0.225,0,0.446,0.075,0.667,0.075
			c0.516,0.298,1.038,0.446,1.629,0.519h0.517c0.371,0,0.816-0.148,1.113-0.294h0.665c0.516,0.221,1.11,0.369,1.629,0.369h0.225
			c0.516-0.075,0.96-0.225,1.405-0.445c0.225,0,0.445,0,0.666-0.075c0.518,0.225,1.113,0.297,1.63,0.297
			c0.594-0.075,1.113-0.225,1.631-0.517c0.223,0,0.444-0.075,0.665-0.075c0.445,0.15,0.962,0.225,1.408,0.15h0.225
			c0.591-0.075,1.11-0.297,1.555-0.667c0.225-0.075,0.445-0.075,0.666-0.15c0.37,0.075,0.815,0.15,1.185,0.075
			c0.15,0,0.37-0.075,0.517-0.075c0.594-0.148,1.038-0.369,1.481-0.74c0.225-0.075,0.446-0.15,0.667-0.15
			c0.296,0.075,0.592,0.075,0.962,0.075c0.223,0,0.519-0.073,0.742-0.148c0.518-0.15,1.035-0.445,1.406-0.887l0.666-0.225h0.665
			c0.37,0,0.666-0.15,0.962-0.225c0.519-0.22,0.962-0.516,1.334-0.962c0.221-0.073,0.444-0.148,0.665-0.295h0.444
			c0.445,0,0.815-0.15,1.185-0.296c0.517-0.225,0.962-0.592,1.334-1.037c0.225-0.075,0.37-0.225,0.592-0.296h0.225
			c0.516-0.075,1.034-0.225,1.405-0.445c0.517-0.296,0.887-0.666,1.259-1.113c0.225-0.146,0.371-0.22,0.594-0.367
			c0.594-0.075,1.113-0.225,1.631-0.592c0.517-0.296,0.887-0.741,1.113-1.259c0.223-0.15,0.369-0.297,0.516-0.371
			c0.594-0.075,1.113-0.296,1.556-0.666c0.445-0.371,0.815-0.816,1.113-1.335c0.15-0.15,0.37-0.296,0.519-0.445
			c0.592-0.148,1.113-0.369,1.481-0.74c0.445-0.37,0.741-0.887,0.962-1.408l0.445-0.445c0.516-0.15,1.034-0.445,1.48-0.887
			c0.444-0.446,0.741-0.965,0.888-1.483l0.445-0.445c0.517-0.225,1.037-0.518,1.408-0.962c0.37-0.445,0.666-0.962,0.741-1.556
			c0.148-0.15,0.295-0.298,0.369-0.446c0.517-0.225,0.962-0.592,1.334-1.113c0.369-0.444,0.591-1.037,0.665-1.629
			c0.15-0.15,0.225-0.296,0.37-0.445c0.52-0.298,0.962-0.668,1.26-1.188c0.296-0.517,0.517-1.035,0.517-1.629
			c0.075-0.148,0.225-0.369,0.298-0.516c0.518-0.298,0.887-0.741,1.185-1.26c0.296-0.519,0.445-1.113,0.445-1.706
			c0.075-0.148,0.225-0.369,0.298-0.517c0.445-0.369,0.815-0.813,1.113-1.333c0.223-0.52,0.369-1.113,0.295-1.705
			c0.075-0.15,0.15-0.37,0.225-0.517c0.443-0.371,0.813-0.89,1.034-1.409c0.225-0.519,0.297-1.113,0.225-1.706
			c0.073-0.221,0.146-0.369,0.223-0.591c0.369-0.446,0.741-0.89,0.888-1.481c0.15-0.594,0.225-1.188,0.075-1.705
			c0.073-0.225,0.073-0.37,0.148-0.592c0.371-0.446,0.667-0.965,0.816-1.558c0.148-0.592,0.075-1.185-0.075-1.705
			c0.075-0.221,0.075-0.369,0.15-0.591c0.369-0.445,0.591-0.962,0.665-1.556c0.075-0.592,0-1.185-0.15-1.705
			c0-0.221,0.075-0.369,0.075-0.591c0.297-0.445,0.519-1.037,0.594-1.63c0.075-0.591-0.075-1.184-0.296-1.704v-0.518
			c0.296-0.517,0.445-1.112,0.445-1.705c0-0.592-0.15-1.185-0.446-1.704v-0.518c0.296-0.741,0.37-1.335,0.37-1.929"/>
		<path fill="#58595B" d="M285.944,245.251l-0.37-4.221l9.63-0.887c0.592-0.075,1.037-0.594,0.962-1.188v-0.223
			c-0.075-0.591-0.592-1.035-1.188-0.962l-9.63,0.887l-0.148-1.852l6.223-0.592c0.592-0.075,1.037-0.592,0.962-1.185v-0.225
			c-0.075-0.59-0.592-1.034-1.188-0.962l-6.219,0.594l-0.15-1.63c-0.073-0.594-0.591-1.037-1.184-0.965h-0.225
			c-0.59,0.075-1.034,0.594-0.962,1.188l0.15,1.629l-6.223,0.595c-0.591,0.075-1.035,0.592-0.962,1.185v0.225
			c0.075,0.59,0.592,1.034,1.185,0.962l6.223-0.592l0.148,1.852l-9.631,0.887c-0.594,0.075-1.037,0.594-0.965,1.188v0.223
			c0.075,0.591,0.594,1.035,1.188,0.962l9.631-0.887l0.369,4.22l2.37-0.221v-0.004L285.944,245.251z M265.943,260.515
			c-0.445-5.038,1.705-5.78,3.927-6c2.223-0.225,4.445,0.223,4.888,5.259l0.225,2.887c0.444,5.188-1.409,6-3.927,6.223
			c-2.519,0.221-4.445-0.298-4.962-5.484l-0.15-2.888V260.515L265.943,260.515z M269.055,263.18
			c0.295,3.332,0.887,3.777,1.925,3.704c1.113-0.075,1.556-0.594,1.259-4l-0.22-2.89c-0.296-2.963-0.887-3.555-1.925-3.48
			c-1.037,0.073-1.557,0.813-1.26,3.777L269.055,263.18L269.055,263.18z M290.388,264.513l4.15-0.37
			c1.037-0.075,1.481,0.37,1.481,1.037c0.075,0.666-0.296,1.185-1.334,1.259l-5.409,0.446c-0.962,0.075-1.48-0.296-1.554-1.259
			l-0.962-10.966c-0.075-0.962,0.37-1.406,1.334-1.481l5.26-0.445c1.038-0.075,1.481,0.37,1.481,1.037
			c0.075,0.666-0.296,1.185-1.334,1.259l-4,0.375l0.296,3.185l3.704-0.371c1.037-0.073,1.481,0.371,1.481,1.038
			c0.075,0.667-0.296,1.188-1.334,1.26l-3.704,0.298l0.445,3.704v-0.005L290.388,264.513L290.388,264.513z M296.838,257.771
			c-0.447-5.037,1.7-5.779,3.925-6c2.221-0.225,4.444,0.223,4.888,5.259l0.225,2.888c0.444,5.188-1.409,6.003-3.928,6.225
			c-2.519,0.223-4.445-0.298-4.962-5.484l-0.15-2.888L296.838,257.771z M299.947,260.439c0.296,3.334,0.887,3.779,1.925,3.704
			c1.113-0.075,1.557-0.592,1.26-4l-0.221-2.887c-0.296-2.965-0.887-3.558-1.925-3.483c-1.037,0.073-1.557,0.813-1.26,3.777
			l0.221,2.888V260.439z M283.204,260.66c0.225-0.15,0.518-0.37,0.592-0.445c0.15-0.15,0.371-0.296,0.52-0.445
			c0.592-0.593,0.815-1.408,0.666-2.74c-0.15-1.925-1.113-3.481-3.557-3.26l-3.704,0.296c-0.962,0.073-1.408,0.516-1.334,1.48
			l0.962,11.335c0.075,0.815,0.742,1.259,1.482,1.185c0.741-0.075,1.334-0.666,1.259-1.408l-0.444-4.89l1.113-0.075
			c0,0,0.073,0,0.223-0.075l2.37,5.037c0.445,0.89,1.037,1.037,1.705,0.742c0.591-0.296,0.962-0.815,0.517-1.705l-2.37-5.037v0.003
			L283.204,260.66z M280.537,259.698l-1.04,0.075l-0.37-3.854l1.185-0.073c1.259-0.15,1.777,0.444,1.925,1.775
			c0.075,1.483-0.665,2.002-1.704,2.075"/>
		<path fill="#58595B" d="M287.5,276.145c-7.038,0.592-13.854-0.37-19.113-2.887c-5.484-2.594-8.742-6.445-9.115-10.89
			c-0.369-4.448,2.075-8.819,7.038-12.3c4.743-3.408,11.263-5.556,18.3-6.223s13.854,0.37,19.113,2.887
			c5.484,2.594,8.742,6.445,9.115,10.89c0.369,4.448-2.075,8.819-7.038,12.3C301.058,273.256,294.538,275.479,287.5,276.145
			 M284.833,246.215c-13.483,1.185-23.854,8.372-23.187,16c0.667,7.633,12.225,12.819,25.634,11.631
			c13.483-1.184,23.855-8.37,23.188-16C309.873,250.218,298.317,245.031,284.833,246.215 M295.575,311.333l-0.592-3.481
			c-0.147-0.741-0.741-1.335-1.408-1.188c-0.666,0.075-1.113,0.816-0.962,1.631l0.592,3.481c0.148,0.744,0.741,1.338,1.408,1.188
			C295.278,312.816,295.723,312.149,295.575,311.333 M299.205,310.593l-0.815-3.481c-0.15-0.741-0.815-1.26-1.481-1.113
			c-0.666,0.15-1.037,0.887-0.887,1.63l0.813,3.48c0.15,0.744,0.815,1.263,1.482,1.113c0.665-0.148,1.035-0.888,0.888-1.63
			 M302.688,309.483l-1.037-3.408c-0.225-0.741-0.962-1.185-1.556-0.962c-0.665,0.223-0.962,0.962-0.741,1.704l1.037,3.406
			c0.225,0.741,0.965,1.185,1.557,0.962c0.666-0.15,0.962-0.887,0.74-1.704 M306.169,308.221l-1.259-3.334
			c-0.297-0.741-1.037-1.11-1.631-0.887c-0.666,0.225-0.887,1.037-0.592,1.777l1.258,3.334c0.298,0.741,1.037,1.113,1.631,0.887
			C306.169,309.778,306.465,308.964,306.169,308.221 M309.503,306.74l-1.481-3.184c-0.296-0.74-1.113-1.037-1.705-0.74
			c-0.591,0.296-0.813,1.113-0.517,1.777l1.48,3.188c0.296,0.74,1.113,1.034,1.705,0.74
			C309.65,308.224,309.872,307.409,309.503,306.74 M312.763,304.961l-1.705-3.112c-0.369-0.665-1.184-0.962-1.775-0.665
			c-0.594,0.296-0.741,1.113-0.371,1.853l1.704,3.112c0.369,0.665,1.184,0.962,1.703,0.665c0.666-0.37,0.813-1.185,0.444-1.853
			 M315.875,302.961l-1.927-2.962c-0.445-0.667-1.259-0.89-1.777-0.519c-0.592,0.37-0.666,1.185-0.225,1.853l1.93,2.962
			c0.444,0.667,1.259,0.89,1.775,0.519C316.17,304.444,316.319,303.629,315.875,302.961 M318.838,300.814l-2.15-2.815
			c-0.444-0.592-1.258-0.815-1.85-0.37c-0.519,0.445-0.594,1.26-0.15,1.854l2.15,2.815c0.444,0.592,1.259,0.815,1.85,0.37
			c0.594-0.444,0.594-1.258,0.15-1.85 M321.653,298.443l-2.371-2.667c-0.518-0.593-1.334-0.741-1.853-0.296
			c-0.517,0.444-0.517,1.258,0,1.85l2.37,2.669c0.516,0.591,1.331,0.741,1.85,0.294
			C322.168,299.848,322.168,298.959,321.653,298.443 M324.247,295.851l-2.52-2.519c-0.516-0.517-1.406-0.592-1.85-0.15
			s-0.446,1.335,0.148,1.854l2.519,2.519c0.517,0.517,1.408,0.591,1.852,0.148c0.516-0.519,0.444-1.334-0.147-1.85 M326.69,293.109
			l-2.668-2.371c-0.592-0.518-1.408-0.518-1.853,0c-0.445,0.517-0.296,1.334,0.296,1.852l2.668,2.296
			c0.592,0.517,1.408,0.517,1.852,0C327.429,294.443,327.282,293.554,326.69,293.109 M328.985,290.145l-2.813-2.15
			c-0.594-0.441-1.483-0.441-1.854,0.15c-0.37,0.519-0.225,1.334,0.37,1.852l2.816,2.15c0.594,0.443,1.481,0.443,1.854-0.15
			c0.445-0.594,0.225-1.409-0.37-1.854 M330.988,287.108l-2.965-1.925c-0.666-0.446-1.481-0.297-1.852,0.223
			c-0.37,0.592-0.15,1.334,0.517,1.777l2.962,1.925c0.669,0.445,1.483,0.296,1.855-0.225
			C331.875,288.293,331.655,287.478,330.988,287.108 M332.838,283.849l-3.11-1.705c-0.665-0.368-1.481-0.22-1.85,0.372
			c-0.298,0.591,0,1.406,0.665,1.775l3.112,1.706c0.663,0.37,1.48,0.225,1.85-0.37c0.296-0.594,0-1.335-0.666-1.777
			 M334.394,280.588l-3.26-1.481c-0.741-0.293-1.481-0.069-1.777,0.523c-0.296,0.591,0.075,1.406,0.741,1.702l3.26,1.481
			c0.741,0.298,1.481,0.075,1.777-0.517c0.296-0.665,0-1.406-0.741-1.705 M335.8,277.105l-3.332-1.258
			c-0.741-0.297-1.481,0-1.777,0.591c-0.225,0.666,0.15,1.334,0.887,1.63l3.335,1.26c0.741,0.298,1.481,0,1.779-0.591
			c0.225-0.592-0.223-1.332-0.89-1.63 M336.913,273.626l-3.408-1.038c-0.741-0.225-1.481,0.073-1.705,0.74
			c-0.221,0.665,0.225,1.333,0.962,1.555l3.409,1.037c0.741,0.225,1.481-0.075,1.705-0.741
			C338.102,274.514,337.655,273.848,336.913,273.626 M337.728,270.07l-3.481-0.815c-0.741-0.15-1.481,0.225-1.631,0.887
			c-0.148,0.665,0.37,1.333,1.113,1.48l3.48,0.815c0.741,0.15,1.481-0.221,1.631-0.888c0.15-0.666-0.295-1.332-1.11-1.48
			 M338.395,266.439l-3.556-0.518c-0.74-0.15-1.48,0.296-1.555,0.962c-0.075,0.666,0.445,1.334,1.185,1.408l3.481,0.516
			c0.74,0.15,1.48-0.296,1.556-0.962c0.148-0.666-0.371-1.334-1.113-1.408 M338.692,262.735l-3.556-0.296
			c-0.815-0.075-1.481,0.445-1.481,1.113c-0.075,0.666,0.518,1.259,1.334,1.334l3.556,0.296c0.741,0.075,1.481-0.444,1.481-1.11
			c0.075-0.668-0.518-1.259-1.334-1.335 M338.838,259.033l-3.555-0.075c-0.815,0-1.408,0.518-1.408,1.185
			c0,0.666,0.591,1.259,1.406,1.259l3.556,0.075c0.815,0,1.408-0.517,1.408-1.185c0-0.667-0.666-1.26-1.406-1.26 M338.692,255.401
			l-3.556,0.225c-0.815,0.071-1.408,0.59-1.334,1.258c0.075,0.666,0.742,1.185,1.483,1.113l3.556-0.225
			c0.816-0.073,1.409-0.591,1.335-1.259c-0.075-0.666-0.741-1.185-1.481-1.113 M338.247,251.696l-3.556,0.446
			c-0.741,0.073-1.334,0.741-1.259,1.406c0.073,0.666,0.741,1.113,1.555,1.037l3.555-0.445c0.741-0.075,1.334-0.742,1.259-1.335
			c-0.071-0.738-0.74-1.184-1.554-1.113 M337.582,248.068l-3.483,0.666c-0.742,0.15-1.26,0.815-1.188,1.481
			c0.15,0.666,0.89,1.037,1.631,0.887l3.481-0.666c0.741-0.15,1.26-0.815,1.188-1.481c-0.15-0.592-0.891-1.037-1.631-0.887
			 M336.692,244.51l-3.408,0.887c-0.741,0.225-1.259,0.89-1.037,1.558c0.15,0.665,0.962,1.035,1.705,0.812l3.408-0.962
			c0.741-0.221,1.259-0.887,1.037-1.555c-0.225-0.592-0.965-0.962-1.704-0.74 M335.505,241.03l-3.334,1.185
			c-0.741,0.221-1.185,0.962-0.962,1.629c0.223,0.667,0.962,0.965,1.704,0.667l3.334-1.185c0.741-0.221,1.185-0.962,0.962-1.629
			c-0.221-0.592-0.962-0.962-1.704-0.666 M334.098,237.623l-3.26,1.408c-0.741,0.294-1.113,1.035-0.815,1.629
			c0.296,0.592,1.038,0.887,1.777,0.592l3.26-1.409c0.741-0.296,1.113-1.037,0.815-1.63c-0.296-0.666-1.037-0.887-1.777-0.592
			 M332.468,234.288l-3.187,1.63c-0.663,0.37-1.034,1.113-0.74,1.705c0.298,0.592,1.113,0.815,1.779,0.445l3.188-1.63
			c0.662-0.37,1.034-1.113,0.74-1.705C333.95,234.139,333.134,233.991,332.468,234.288 M330.617,231.101l-3.038,1.852
			c-0.666,0.369-0.962,1.184-0.592,1.775c0.369,0.594,1.184,0.742,1.85,0.298l3.038-1.853c0.667-0.367,0.965-1.183,0.594-1.775
			c-0.37-0.519-1.185-0.667-1.852-0.298 M328.542,228.065l-2.887,2.075c-0.668,0.443-0.816,1.258-0.446,1.775
			c0.37,0.52,1.185,0.667,1.853,0.225l2.887-2.075c0.668-0.445,0.816-1.259,0.446-1.777c-0.445-0.592-1.259-0.666-1.853-0.225
			 M326.245,225.176l-2.74,2.223c-0.594,0.518-0.741,1.334-0.371,1.852c0.445,0.518,1.259,0.518,1.852,0.075l2.738-2.225
			c0.594-0.516,0.742-1.333,0.371-1.85C327.65,224.733,326.837,224.733,326.245,225.176 M323.725,222.509l-2.591,2.446
			c-0.592,0.518-0.666,1.331-0.225,1.85c0.447,0.517,1.337,0.445,1.855-0.075l2.592-2.445c0.592-0.518,0.666-1.333,0.225-1.85
			c-0.45-0.519-1.263-0.519-1.854,0.075 M321.059,219.918l-2.446,2.591c-0.518,0.592-0.591,1.408-0.073,1.852
			c0.517,0.444,1.334,0.369,1.852-0.225l2.446-2.591c0.519-0.592,0.592-1.408,0.075-1.853c-0.445-0.444-1.335-0.296-1.854,0.225
			 M318.244,217.618l-2.223,2.743c-0.518,0.592-0.445,1.408,0.075,1.852c0.516,0.445,1.331,0.296,1.85-0.37l2.223-2.74
			c0.518-0.594,0.445-1.409-0.075-1.854C319.578,216.804,318.689,217.024,318.244,217.618 M315.207,215.47l-2.075,2.887
			c-0.445,0.669-0.37,1.483,0.15,1.855c0.516,0.37,1.333,0.15,1.775-0.445l2-2.887c0.446-0.666,0.371-1.482-0.148-1.852
			c-0.445-0.445-1.259-0.225-1.705,0.445 M312.095,213.545l-1.853,3.037c-0.37,0.666-0.296,1.481,0.296,1.852
			c0.594,0.37,1.409,0.075,1.779-0.592l1.853-3.037c0.371-0.666,0.297-1.481-0.294-1.852
			C313.284,212.583,312.469,212.878,312.095,213.545 M308.838,211.84l-1.631,3.187c-0.371,0.665-0.15,1.48,0.444,1.775
			c0.592,0.295,1.334,0,1.705-0.742l1.629-3.187c0.37-0.663,0.15-1.478-0.445-1.775c-0.591-0.296-1.332,0-1.704,0.741
			 M305.428,210.359l-1.408,3.26c-0.296,0.742-0.075,1.483,0.592,1.779c0.592,0.296,1.334-0.075,1.705-0.815l1.406-3.262
			c0.295-0.74,0.073-1.48-0.519-1.775C306.538,209.248,305.724,209.618,305.428,210.359 M302.022,209.099l-1.188,3.334
			c-0.221,0.741,0.075,1.481,0.668,1.705c0.667,0.225,1.335-0.225,1.631-0.962l1.185-3.334c0.225-0.742-0.075-1.482-0.666-1.706
			C302.985,207.914,302.244,208.36,302.022,209.099 M298.463,208.138l-0.887,3.408c-0.225,0.741,0.147,1.481,0.812,1.705
			c0.668,0.148,1.335-0.298,1.558-1.037l0.887-3.409c0.225-0.742-0.146-1.482-0.813-1.706c-0.666-0.224-1.408,0.296-1.556,1.037
			 M294.834,207.396l-0.666,3.481c-0.147,0.741,0.298,1.481,0.89,1.631c0.666,0.15,1.334-0.37,1.481-1.185l0.667-3.481
			c0.148-0.741-0.296-1.481-0.887-1.631C295.652,206.061,294.985,206.581,294.834,207.396 M291.203,206.876l-0.444,3.556
			c-0.075,0.741,0.37,1.481,1.037,1.556c0.666,0.075,1.259-0.445,1.408-1.259l0.445-3.558c0.073-0.741-0.371-1.481-1.037-1.556
			C291.87,205.541,291.278,206.134,291.203,206.876 M287.5,206.655l-0.15,3.556c-0.073,0.815,0.446,1.408,1.113,1.481
			c0.666,0.075,1.259-0.592,1.259-1.334l0.15-3.556c0.073-0.741-0.446-1.408-1.113-1.481
			C288.093,205.246,287.5,205.839,287.5,206.655 M283.795,206.655l0.075,3.556c0,0.741,0.592,1.408,1.259,1.408
			c0.667,0,1.188-0.666,1.188-1.408l-0.075-3.556c0-0.742-0.592-1.409-1.259-1.409C284.315,205.246,283.795,205.915,283.795,206.655
			 M280.167,206.953l0.296,3.555c0.075,0.815,0.666,1.334,1.334,1.334c0.666-0.075,1.185-0.742,1.113-1.482l-0.371-3.63
			c-0.075-0.815-0.666-1.334-1.334-1.334c-0.667,0.148-1.113,0.813-1.037,1.556 M276.463,207.468l0.591,3.483
			c0.15,0.744,0.741,1.338,1.408,1.188c0.665-0.075,1.11-0.815,0.962-1.556l-0.594-3.48c-0.15-0.744-0.741-1.338-1.408-1.188
			c-0.592,0.075-1.037,0.817-0.962,1.556 M272.907,208.284l0.815,3.481c0.147,0.744,0.887,1.263,1.481,1.113
			c0.666-0.148,1.037-0.887,0.887-1.629l-0.815-3.483c-0.15-0.742-0.815-1.26-1.481-1.113c-0.668,0.148-1.113,0.887-0.888,1.629
			 M269.35,209.321l1.037,3.408c0.225,0.74,0.962,1.188,1.556,0.962c0.668-0.225,0.962-0.962,0.741-1.705l-1.035-3.406
			c-0.225-0.74-0.962-1.184-1.557-0.962C269.425,207.843,269.128,208.58,269.35,209.321 M265.868,210.655l1.259,3.335
			c0.3,0.741,1.04,1.113,1.632,0.887c0.666-0.223,0.888-1.037,0.592-1.775l-1.259-3.335c-0.298-0.741-1.037-1.113-1.631-0.887
			c-0.594,0.221-0.815,1.035-0.592,1.775 M262.534,212.138l1.481,3.187c0.37,0.738,1.113,1.034,1.705,0.738
			c0.591-0.296,0.813-1.113,0.517-1.777l-1.481-3.187c-0.37-0.737-1.113-1.034-1.705-0.737
			C262.462,210.656,262.239,211.473,262.534,212.138 M259.275,213.915l1.705,3.112c0.369,0.667,1.184,0.965,1.775,0.667
			c0.595-0.296,0.742-1.113,0.373-1.852l-1.705-3.112c-0.369-0.665-1.184-0.962-1.703-0.665c-0.592,0.37-0.815,1.185-0.445,1.852
			 M256.163,215.843l1.927,2.962c0.445,0.665,1.259,0.887,1.777,0.518c0.592-0.37,0.666-1.185,0.225-1.852l-1.93-2.962
			c-0.444-0.667-1.259-0.89-1.775-0.519c-0.521,0.371-0.595,1.259-0.225,1.853 M253.2,218.064l2.15,2.813
			c0.443,0.594,1.258,0.816,1.85,0.371c0.518-0.445,0.592-1.259,0.15-1.852l-2.225-2.815c-0.444-0.594-1.258-0.816-1.775-0.371
			c-0.519,0.37-0.594,1.259-0.15,1.852 M250.458,220.434l2.371,2.668c0.518,0.592,1.334,0.741,1.852,0.296
			c0.518-0.445,0.518-1.259,0-1.852l-2.37-2.668c-0.519-0.592-1.335-0.741-1.854-0.296c-0.591,0.446-0.518,1.26,0,1.854
			 M247.792,223.026l2.519,2.519c0.518,0.518,1.408,0.592,1.852,0.15c0.445-0.443,0.445-1.335-0.15-1.854l-2.518-2.52
			c-0.518-0.518-1.408-0.591-1.852-0.148c-0.444,0.445-0.369,1.334,0.15,1.85 M245.348,225.768l2.667,2.296
			c0.592,0.518,1.408,0.518,1.852,0c0.445-0.517,0.296-1.334-0.296-1.852l-2.667-2.298c-0.592-0.518-1.408-0.518-1.852,0
			c-0.444,0.517-0.295,1.334,0.298,1.852 M243.125,228.73l2.815,2.15c0.592,0.445,1.481,0.445,1.852-0.15
			c0.37-0.516,0.225-1.333-0.37-1.85l-2.815-2.15c-0.592-0.445-1.481-0.445-1.852,0.15
			C242.308,227.396,242.455,228.213,243.125,228.73 M241.05,231.768l2.962,1.927c0.667,0.445,1.482,0.296,1.854-0.225
			c0.37-0.59,0.15-1.331-0.518-1.775l-2.965-1.929c-0.667-0.445-1.481-0.295-1.854,0.223
			C240.159,230.581,240.38,231.323,241.05,231.768 M239.273,234.955l3.112,1.704c0.665,0.37,1.48,0.225,1.85-0.37
			c0.295-0.592,0-1.408-0.666-1.777l-3.112-1.705c-0.665-0.369-1.48-0.223-1.85,0.371v0.003
			C238.237,233.845,238.532,234.586,239.273,234.955 M237.643,238.29l3.26,1.481c0.741,0.294,1.481,0.073,1.777-0.52
			s-0.075-1.408-0.741-1.705l-3.259-1.481c-0.741-0.294-1.481-0.073-1.777,0.52c-0.295,0.666,0,1.408,0.742,1.705 M236.309,241.695
			l3.334,1.259c0.741,0.298,1.481,0,1.777-0.591c0.225-0.666-0.15-1.334-0.887-1.63l-3.338-1.26c-0.74-0.296-1.48,0-1.775,0.592
			c-0.225,0.665,0.148,1.406,0.887,1.628 M235.198,245.251l3.408,1.037c0.741,0.225,1.481-0.075,1.705-0.741
			c0.224-0.666-0.225-1.334-1.037-1.556l-3.408-1.037c-0.741-0.225-1.481,0.073-1.705,0.74
			C234.014,244.288,234.46,245.028,235.198,245.251 M234.309,248.809l3.481,0.815c0.741,0.15,1.481-0.225,1.631-0.887
			c0.15-0.667-0.37-1.335-1.113-1.482l-3.481-0.816c-0.741-0.15-1.481,0.221-1.63,0.887c-0.15,0.666,0.369,1.333,1.113,1.482
			 M233.717,252.436l3.481,0.52c0.741,0.15,1.481-0.295,1.558-0.962c0.075-0.665-0.445-1.333-1.185-1.406l-3.483-0.518
			c-0.741-0.148-1.481,0.295-1.556,0.962c-0.15,0.666,0.369,1.334,1.185,1.406 M233.347,256.143l3.556,0.296
			c0.815,0.075,1.481-0.445,1.481-1.113c0.075-0.666-0.518-1.259-1.334-1.334l-3.556-0.296c-0.815-0.075-1.481,0.445-1.481,1.037
			C232.013,255.475,232.53,256.068,233.347,256.143 M233.272,259.846l3.556,0.075c0.812,0,1.406-0.519,1.406-1.188
			c0-0.665-0.592-1.258-1.408-1.258l-3.556-0.075c-0.741,0-1.408,0.516-1.408,1.184c0,0.666,0.591,1.185,1.406,1.259
			 M233.419,263.476l3.558-0.225c0.742-0.071,1.409-0.59,1.335-1.258c-0.075-0.665-0.667-1.184-1.481-1.11l-3.558,0.225
			c-0.815,0.071-1.408,0.59-1.334,1.258c0,0.666,0.668,1.185,1.481,1.113 M233.79,267.18l3.556-0.445
			c0.741-0.075,1.334-0.741,1.259-1.408c-0.073-0.666-0.812-1.113-1.555-1.037l-3.556,0.446c-0.741,0.073-1.334,0.741-1.259,1.333
			c0.075,0.742,0.815,1.188,1.555,1.113 M234.458,270.811l3.481-0.666c0.742-0.15,1.263-0.818,1.188-1.484
			c-0.148-0.666-0.887-1.037-1.63-0.888l-3.481,0.666c-0.74,0.15-1.259,0.815-1.188,1.481c0.15,0.592,0.891,1.038,1.632,0.89
			 M235.42,274.368l3.408-0.962c0.741-0.225,1.259-0.89,1.037-1.558c-0.15-0.666-0.962-1.037-1.705-0.815l-3.406,0.962
			c-0.741,0.225-1.259,0.89-1.037,1.557C233.864,274.218,234.604,274.515,235.42,274.368 M236.532,277.848l3.334-1.185
			c0.741-0.225,1.185-0.962,0.962-1.63c-0.223-0.666-0.962-0.962-1.704-0.666l-3.335,1.182c-0.741,0.225-1.185,0.962-0.962,1.63
			c0.223,0.592,0.962,0.887,1.704,0.667 M237.938,281.255l3.262-1.408c0.74-0.294,1.11-1.035,0.812-1.629
			c-0.296-0.591-1.037-0.888-1.777-0.591l-3.26,1.409c-0.741,0.296-1.113,1.038-0.815,1.63c0.296,0.666,1.113,0.887,1.777,0.592
			 M239.569,284.515l3.187-1.63c0.662-0.37,1.034-1.113,0.74-1.705c-0.298-0.591-1.113-0.813-1.779-0.444l-3.187,1.63
			c-0.663,0.369-1.034,1.11-0.74,1.704c0.298,0.667,1.113,0.815,1.779,0.444 M241.495,287.701l3.037-1.853
			c0.667-0.37,0.962-1.185,0.594-1.777s-1.184-0.741-1.85-0.296l-3.037,1.853c-0.667,0.37-0.965,1.185-0.594,1.777
			C239.942,287.998,240.83,288.146,241.495,287.701 M243.569,290.738l2.887-2.075c0.666-0.444,0.815-1.258,0.445-1.775
			c-0.369-0.519-1.184-0.667-1.85-0.15l-2.89,2.075c-0.666,0.444-0.815,1.258-0.445,1.775
			C242.088,291.108,242.904,291.183,243.569,290.738 M245.867,293.63l2.74-2.225c0.594-0.516,0.741-1.332,0.371-1.85
			c-0.444-0.519-1.259-0.519-1.85-0.075l-2.741,2.223c-0.595,0.518-0.742,1.334-0.372,1.852c0.37,0.593,1.185,0.593,1.85,0.075
			 M248.31,296.368l2.592-2.445c0.591-0.517,0.665-1.333,0.221-1.85c-0.446-0.519-1.26-0.446-1.854,0.073l-2.593,2.444
			c-0.592,0.518-0.666,1.334-0.225,1.853c0.45,0.516,1.263,0.444,1.856-0.075 M250.978,298.889l2.446-2.592
			c0.516-0.593,0.59-1.408,0.071-1.853c-0.518-0.444-1.334-0.369-1.852,0.225l-2.446,2.591c-0.518,0.592-0.592,1.408-0.075,1.852
			c0.519,0.444,1.335,0.37,1.855-0.223 M253.793,301.258l2.223-2.74c0.518-0.594,0.445-1.409-0.075-1.854
			c-0.516-0.445-1.333-0.296-1.85,0.37l-2.225,2.74c-0.516,0.595-0.444,1.413,0.075,1.855
			C252.534,301.998,253.349,301.849,253.793,301.258 M256.832,303.405l2-2.888c0.444-0.666,0.369-1.481-0.15-1.852
			c-0.518-0.37-1.334-0.15-1.777,0.445l-2.075,2.89c-0.444,0.666-0.369,1.481,0.15,1.852
			C255.57,304.223,256.385,304.075,256.832,303.405 M259.942,305.334l1.853-3.038c0.37-0.666,0.296-1.481-0.296-1.852
			c-0.592-0.369-1.334-0.073-1.777,0.594l-1.852,3.037c-0.369,0.666-0.294,1.481,0.297,1.853c0.592,0.37,1.408,0.075,1.775-0.592
			 M263.2,307.036l1.631-3.187c0.37-0.663,0.15-1.48-0.445-1.775c-0.594-0.298-1.409,0-1.706,0.741L261.052,306
			c-0.37,0.666-0.15,1.481,0.445,1.777C262.089,308.074,262.904,307.778,263.2,307.036 M266.609,308.518l1.408-3.26
			c0.296-0.741,0.075-1.481-0.592-1.777c-0.594-0.296-1.335,0.075-1.706,0.815l-1.406,3.262c-0.296,0.74-0.075,1.48,0.518,1.775
			c0.74,0.298,1.481-0.073,1.779-0.815 M270.092,309.778l1.185-3.334c0.225-0.74-0.073-1.555-0.665-1.704
			c-0.666-0.22-1.334,0.225-1.63,0.962l-1.184,3.335c-0.225,0.741,0.075,1.481,0.666,1.705
			C269.13,310.89,269.797,310.518,270.092,309.778 M273.647,310.74l0.887-3.408c0.225-0.741-0.147-1.481-0.812-1.705
			c-0.668-0.148-1.335,0.297-1.558,1.037l-0.887,3.409c-0.225,0.741,0.15,1.481,0.815,1.705c0.668,0.22,1.334-0.3,1.556-1.04
			 M277.203,311.483l0.666-3.481c0.15-0.744-0.294-1.484-0.888-1.633c-0.666-0.148-1.334,0.371-1.481,1.188l-0.666,3.48
			c-0.15,0.741,0.296,1.481,0.887,1.631C276.463,312.74,277.055,312.223,277.203,311.483 M280.907,312l0.445-3.556
			c0.075-0.74-0.369-1.48-1.038-1.556c-0.665-0.075-1.258,0.518-1.406,1.259l-0.445,3.559c-0.075,0.74,0.369,1.48,1.037,1.555
			C280.167,313.335,280.758,312.741,280.907,312 M284.535,312.223l0.15-3.556c0.075-0.816-0.445-1.409-1.113-1.483
			c-0.665,0-1.258,0.592-1.258,1.334l-0.15,3.559c-0.075,0.741,0.445,1.408,1.113,1.481
			C283.944,313.558,284.535,312.964,284.535,312.223 M288.24,312.149l-0.073-3.557c0-0.816-0.592-1.409-1.259-1.409
			c-0.667,0-1.188,0.666-1.188,1.408l0.075,3.555c0,0.741,0.592,1.406,1.259,1.406c0.668,0.073,1.188-0.594,1.188-1.409
			 M291.944,311.925l-0.294-3.556c-0.075-0.813-0.668-1.333-1.335-1.333c-0.666,0.075-1.185,0.741-1.113,1.481l0.297,3.555
			c0.075,0.741,0.666,1.334,1.334,1.334C291.5,313.335,292.019,312.669,291.944,311.925 M281.648,215.47
			c1.037-0.15,3.779-0.37,5.188-0.37c0.962,0,2.666,0.073,2.737,1.035c0.075,1.631-2.813,0.962-4.072,0.962
			c-2.075,0-5.63,0.446-7.631,0.816c-1.259,0.225-2.516,0.666-2.666-0.445c-0.445-1.704,4.221-1.775,6.445-1.997 M293.5,215.618
			c1.854,1.26-0.962,3.112-1.406,1.335C291.869,216.211,292.317,215.545,293.5,215.618 M270.017,219.25
			c-0.518-1.852,1.63-2.075,1.925-1.037C272.314,219.325,270.908,220.213,270.017,219.25 M298.318,217.028
			c0.962-0.518,2.74,0.592,3.777,0.962c1.925,0.742,4.519,1.852,6.444,2.965c1.263,0.665,2.595,1.333,2.595,2.223
			c0,0.367-0.37,0.962-0.815,1.035c-0.741,0.15-1.334-0.592-1.556-0.741c-2.298-1.408-4.962-2.815-7.78-3.853
			c-1.037-0.369-2.888-0.444-3.112-1.406c-0.22-0.517,0-0.962,0.448-1.184 M266.609,219.471c1.925,1.334-0.887,2.519-2.075,3.188
			c-2.813,1.554-4.813,3.035-7.11,5.109c-0.667,0.592-2,1.63-2.371,0.15c-0.225-0.89,1.334-2.075,2.075-2.669
			c2.668-2.15,6-4.075,8.595-5.704c-0.075,0,0.813-0.075,0.887-0.075 M251.275,229.843c1.997-0.812,2.221,2.15,0.516,2
			C250.979,231.77,250.608,230.584,251.275,229.843 M313.207,225.324c0.741-0.37,1.481,0,1.556,0.741
			c0.15,1.334-1.777,1.63-2.15,0.518C312.54,226.064,312.613,225.62,313.207,225.324 M317.355,228.51c0,0,0.517-0.296,0.962-0.225
			c0.445,0.075,1.704,1.706,2.371,2.52c1.706,2.15,3.409,4.519,4.816,7.26c0.517,1.035,1.113,2.516-0.592,2.444
			c-0.965-0.075-1.335-1.705-2-2.74c-1.631-2.887-2.89-4.519-5.037-6.815c-0.592-0.741-1.483-1.775-0.52-2.443 M248.683,234.51
			c0.591-0.666,1.481-0.15,1.629,0.37c0.223,0.666-0.371,1.408-0.594,1.852c-1.555,2.446-2.813,4.669-3.997,7.779
			c-0.371,1.113-0.371,2.962-1.705,3.038c-1.925,0.075-0.518-2.962-0.075-4.147c1.333-3.188,3.112-6.89,4.741-8.891
			 M326.022,242.955c0.741-0.37,1.335-0.15,1.557,0.518c0.445,1.481-1.777,1.854-2.075,0.667
			C325.429,243.77,325.357,243.325,326.022,242.955 M242.384,250.289c0.592-0.225,1.259,0.225,1.334,0.815
			c0.075,0.516-0.296,1.258-0.815,1.333c-0.962,0.15-2-1.703-0.519-2.15 M327.8,249.549c0.298-0.517,0.965-1.259,1.706-0.741
			c0.518,0.37,0.887,2.815,1.035,3.852c0.298,1.853,0.594,5.482,0.594,7.556c0,1.406-0.225,2.813-1.037,2.888
			c-1.556,0.15-1.037-2.075-1.037-3.188C329.06,256.436,328.394,252.141,327.8,249.549 M242.829,255.771
			c0.592,0.517,0.15,1.556,0.15,2.15c0,2.147,0.295,6.37,0.665,8.592c0.15,0.89,1.113,2.962,0,3.41
			c-1.777,0.741-2.075-3.63-2.296-5.63c-0.15-1.48-0.296-3.112-0.296-4c-0.073-1.259-0.148-3.779,0.446-4.371
			C241.644,255.478,242.535,255.551,242.829,255.771 M329.725,265.478c0.448,0.296,0.595,1.185,0.372,1.777
			c-0.666,0.517-1.556,0.296-1.925-0.225C327.948,265.846,328.542,265.401,329.725,265.478 M243.718,272.959
			c1.705-0.517,1.408,2.075,0.15,2C243.125,274.959,242.31,273.329,243.718,272.959 M327.875,271.405
			c2.815-1.188,1.037,2.888,0.517,4.146c-0.962,2.446-1.85,4-3.184,6.444c-0.445,0.816-1.113,2.742-2.37,2.446
			c-0.073,0-0.591-0.371-0.665-0.594c-0.296-0.815,1.037-2.519,1.408-3.112c1.113-1.925,2.15-4,2.962-6.075
			c0.516-1.184,0.666-2.515,1.333-3.257 M244.978,278.515c1.333-1.777,2.591,0.962,3.332,2.296c1.481,2.668,3.037,4.741,4.962,6.963
			c0.446,0.519,1.558,1.779,0.298,2.298c-1.259,0.517-2.446-1.777-2.815-2.223c-1.63-2-2.962-3.63-4.221-5.779
			C245.94,281.108,245.125,279.998,244.978,278.515 M320.393,286.443c1.556-0.666,1.853,1.777,0.666,2
			C319.874,288.593,319.059,286.961,320.393,286.443 M255.57,293.701c-0.225-1.113,0.225-1.705,1.408-1.63
			C258.534,292.886,256.682,295.184,255.57,293.701 M304.688,298.963c-0.887-1.408,0.962-2,2.37-2.667
			c3.038-1.63,6.15-4.371,8.15-6.075c0.516-0.445,1.555,0.445,1.555,0.741c0.147,0.962-1.777,2.15-2.446,2.74
			c-2,1.631-3.85,2.89-6.147,4.225C307.207,298.518,305.947,299.776,304.688,298.963 M261.423,295.405
			c1.852,0.742,3.556,2.15,6.222,3.335c0.962,0.445,2,0.815,3.408,1.259c1.037,0.37,2.962,0.666,2.668,1.925
			c-0.296,1.335-2.519,0.298-3.556-0.148c-2.741-1.037-4.519-1.852-6.962-3.187c-0.89-0.516-2.741-1.184-2.816-2.221
			C260.313,295.775,260.83,295.48,261.423,295.405 M301.947,299.184c1.556,1.556-1.259,2.887-1.705,1.259
			C300.094,299.705,300.762,298.74,301.947,299.184 M277.944,301.405c1.853,1.409-1.259,3.038-1.556,1.26
			c-0.146-0.666,0.448-1.259,1.556-1.259 M295.5,300.665c0.667,0,1.483-0.296,1.483,0.887c0,1.037-2,1.335-3.334,1.483
			c-1.927,0.296-4.52,0.445-6.52,0.517c-1.705,0.075-4.15,0.52-4.519-0.665c-0.519-1.925,2.813-1.185,4.22-1.185
			c2.816-0.075,6.3-0.815,8.446-0.962l0.223-0.075H295.5z M264.757,230.139c-0.225,0.592,0.075,1.259,0.592,1.481
			c0.591,0.225,1.258-0.075,1.48-0.592c0.225-0.592-0.075-1.259-0.592-1.481C265.57,229.25,264.979,229.546,264.757,230.139
			 M252.904,244.808c-0.225,0.592,0.075,1.259,0.592,1.481c0.592,0.225,1.259-0.075,1.481-0.592
			c0.225-0.595-0.075-1.263-0.592-1.484c-0.592-0.225-1.259,0-1.481,0.592 M249.867,263.33c-0.225,0.591,0.075,1.258,0.592,1.48
			c0.594,0.225,1.188-0.075,1.481-0.592c0.225-0.595-0.073-1.263-0.591-1.484c-0.594-0.296-1.26,0-1.483,0.592 M257.2,279.33
			c-0.225,0.592,0.075,1.259,0.592,1.48c0.592,0.225,1.259-0.075,1.481-0.592c0.223-0.592-0.075-1.259-0.594-1.481
			c-0.592-0.223-1.258,0-1.481,0.592 M270.98,290.738c-0.225,0.592,0.075,1.259,0.592,1.481c0.592,0.225,1.259-0.073,1.481-0.591
			c0.225-0.592-0.075-1.259-0.592-1.481c-0.594-0.223-1.26,0-1.483,0.592 M288.688,294.368c-0.225,0.594,0.071,1.26,0.59,1.483
			c0.592,0.225,1.259-0.075,1.481-0.592c0.225-0.594-0.075-1.26-0.592-1.481c-0.592-0.296-1.26,0-1.48,0.593 M307.5,287.628
			c-0.22,0.592,0.075,1.259,0.595,1.481c0.592,0.225,1.259-0.075,1.481-0.593c0.225-0.595-0.073-1.263-0.591-1.482
			c-0.591-0.298-1.258,0-1.482,0.592 M318.32,272.589c-0.225,0.592,0.073,1.259,0.591,1.481c0.591,0.225,1.184-0.075,1.48-0.592
			c0.225-0.592-0.075-1.259-0.592-1.481C319.205,271.7,318.537,271.996,318.32,272.589 M320.095,254.809
			c-0.221,0.592,0.075,1.259,0.594,1.481c0.594,0.225,1.26-0.075,1.483-0.592c0.225-0.594-0.075-1.26-0.592-1.481
			C320.988,253.919,320.322,254.216,320.095,254.809 M313.8,238.14c-0.225,0.592,0.073,1.259,0.591,1.481
			c0.592,0.225,1.259-0.075,1.481-0.592c0.225-0.594-0.075-1.26-0.592-1.482C314.689,237.249,314.023,237.546,313.8,238.14
			 M300.613,226.583c-0.225,0.592,0.075,1.259,0.592,1.481c0.592,0.225,1.185-0.075,1.481-0.592
			c0.223-0.592-0.075-1.259-0.594-1.481C301.5,225.694,300.835,225.99,300.613,226.583 M281.87,223.618
			c-0.225,0.594,0.075,1.26,0.592,1.483c0.592,0.225,1.259-0.075,1.481-0.592c0.225-0.592-0.075-1.259-0.592-1.481
			c-0.591-0.223-1.256,0.075-1.48,0.592 M272.092,244.585c0.15,0.225,0.075,0.592-0.225,0.741h-0.071
			c-1.113,0.445-2.15,0.962-3.188,1.481c-1.034,0.518-1.997,1.185-3.035,1.777h-0.075c-0.295,0.15-0.591,0.075-0.74-0.225
			c-0.075-0.146-0.075-0.293,0-0.443l0.815-2l0.518-1.259c0.15-0.37,0.446-0.666,0.816-0.815h0.15
			c0.369-0.223,0.74-0.295,1.184-0.223l1.335,0.298l2.15,0.445C271.87,244.364,272.018,244.439,272.092,244.585 M297.428,241.993
			l2-0.815l1.259-0.517c0.369-0.15,0.813-0.15,1.184,0h0.148c0.369,0.148,0.741,0.369,0.962,0.665l0.741,1.113l1.185,1.85
			c0.075,0.15,0.15,0.298,0.075,0.446c-0.075,0.296-0.372,0.445-0.669,0.37h-0.073c-1.113-0.446-2.223-0.89-3.335-1.26
			c-1.113-0.372-2.223-0.67-3.408-0.891h-0.075c-0.295-0.075-0.444-0.37-0.369-0.666c0.075-0.073,0.225-0.221,0.37-0.294
			 M285.648,280.515c0.225-0.445,0.517-0.741,0.887-1.259c0.225-0.37,0.667-0.962,1.037-1.037c0.89-0.075,1.854,1.481,2.371,1.925
			c0.445-0.813,0.666-1.85,1.481-2.295c0.815-0.075,1.556-0.075,2.223,0c-0.225,0.887-1.037,1.259-1.556,1.853
			c-0.962,1.185-1.852,2.519-2.592,4c-0.298,0.518-0.667,2-1.26,2c-0.594,0.075-1.26-1.408-1.556-1.777
			c-0.962-1.26-2.075-2.52-3.26-3.483c-0.594-0.517-1.409-0.666-1.779-1.556c0.666-0.15,1.334-0.445,1.852-0.445
			c1.184,0,1.629,1.26,2.147,2.075 M288.089,282.146c0.444-0.665,0.444-2.887-0.371-3.257
			C287.2,279.701,287.348,281.701,288.089,282.146 M300.093,276.218c-0.147-0.223-0.073-0.591,0.225-0.74h0.073
			c1.113-0.445,2.15-0.962,3.188-1.481c1.034-0.517,1.997-1.185,3.035-1.777c0.296-0.148,0.592,0,0.741,0.225
			c0.075,0.147,0.075,0.294,0,0.444l-0.815,2l-0.516,1.259c-0.15,0.37-0.446,0.666-0.816,0.815h-0.148
			c-0.37,0.225-0.741,0.296-1.185,0.225l-1.334-0.3l-2.147-0.444c-0.075,0-0.223-0.075-0.297-0.225 M274.833,281.109l2-0.815
			l1.259-0.516c0.37-0.15,0.815-0.15,1.185,0h0.15c0.371,0.148,0.742,0.369,0.965,0.665l0.741,1.11l1.184,1.854
			c0.075,0.15,0.15,0.298,0.075,0.446c-0.075,0.296-0.37,0.445-0.666,0.37h-0.075c-1.113-0.446-2.223-0.89-3.334-1.26
			c-1.113-0.37-2.223-0.666-3.41-0.888h-0.073c-0.296-0.075-0.445-0.371-0.37-0.667c0.075-0.075,0.225-0.225,0.37-0.296
			 M274.833,278.813l-2,0.815l-1.259,0.518c-0.371,0.15-0.816,0.15-1.188,0h-0.15c-0.369-0.15-0.74-0.37-0.962-0.666l-0.741-1.112
			l-1.184-1.85c-0.075-0.15-0.15-0.297-0.075-0.446c0.075-0.296,0.371-0.445,0.667-0.37h0.073c1.113,0.445,2.223,0.887,3.334,1.259
			c1.11,0.372,2.221,0.67,3.406,0.891h0.075c0.295,0.075,0.444,0.37,0.369,0.666c-0.148,0.075-0.223,0.223-0.368,0.295
			 M301.28,279.108c0.147,0.225,0,0.595-0.225,0.744h-0.073c-1.113,0.445-2.15,0.962-3.188,1.481
			c-1.034,0.518-1.997,1.184-3.035,1.775c-0.296,0.15-0.592,0.075-0.741-0.22c-0.075-0.15-0.075-0.296,0-0.445l0.815-2l0.517-1.259
			c0.15-0.37,0.448-0.666,0.818-0.815h0.15c0.369-0.22,0.74-0.293,1.184-0.22l1.335,0.296l2.15,0.446
			c0.073-0.075,0.223,0.075,0.295,0.225"/>
		<path fill="#58595B" d="M280.463,250.955v0.004l9.556-0.887c0.296,0,0.445-0.225,0.445-0.519c0-0.225-0.146-0.371-0.293-0.446
			l-3.557-1.331c0,0-1.185-0.518-1.63-0.445c-0.371,0.073-1.481,0.74-1.481,0.74l-3.26,1.925h-0.075
			c-0.148,0.075-0.223,0.298-0.223,0.446c0,0.296,0.225,0.519,0.52,0.519 M291.65,268.884l-9.557,0.887
			c-0.296,0-0.445,0.225-0.445,0.519c0,0.225,0.15,0.371,0.296,0.446l3.556,1.332c0,0,1.185,0.519,1.63,0.446
			c0.37,0,1.481-0.741,1.481-0.741l3.259-1.925h0.075c0.148-0.075,0.223-0.297,0.223-0.446c0-0.37-0.225-0.591-0.519-0.518
			 M288.688,220.658l2.294,3.037c0.517,0.666,1.408,0.741,2,0.296l2.962-2.225c0.15-0.148,0.298-0.369,0.371-0.591
			c0.075-0.445-0.296-0.887-0.741-0.962h-0.371c-0.887,0.223-1.852,0.223-2.815,0.075c-0.815-0.075-1.704-0.371-2.593-0.816
			c-0.15-0.075-0.225-0.075-0.296-0.075c-0.446-0.073-0.89,0.298-0.965,0.742c0,0.15,0.075,0.37,0.15,0.517 M294.688,231.028
			l-2.298-3.037c-0.446-0.665-1.409-0.741-2-0.294l-2.965,2.223c-0.147,0.15-0.296,0.37-0.37,0.592
			c-0.075,0.445,0.296,0.887,0.741,0.962h0.37c0.887-0.223,1.853-0.223,2.815-0.075c0.887,0.15,1.777,0.446,2.667,0.89
			c0.148,0.073,0.223,0.073,0.295,0.073c0.445,0.075,0.887-0.225,0.962-0.741c0-0.221-0.075-0.368-0.221-0.59 M286.538,228.88
			l3.038-2.298c0.666-0.444,0.741-1.406,0.296-2l-2.223-2.962c-0.15-0.225-0.371-0.296-0.594-0.37
			c-0.445-0.075-0.887,0.294-0.962,0.741v0.368c0.223,0.887,0.223,1.852,0.075,2.815c-0.15,0.962-0.446,1.777-0.89,2.668
			c-0.073,0.15-0.073,0.225-0.073,0.296c-0.075,0.445,0.296,0.887,0.741,0.962c0.221-0.075,0.443-0.075,0.59-0.223 M296.909,222.88
			l-3.037,2.295c-0.668,0.445-0.741,1.408-0.298,2l2.221,2.962c0.15,0.225,0.37,0.298,0.592,0.371
			c0.448,0.075,0.891-0.296,0.965-0.741v-0.37c-0.225-0.887-0.225-1.852-0.075-2.815c0.15-0.962,0.446-1.777,0.89-2.667
			c0.075-0.15,0.075-0.225,0.075-0.296c0.073-0.444-0.297-0.887-0.742-0.962C297.278,222.731,297.057,222.731,296.909,222.88
			 M290.685,226.288c0.225,0.592,0.888,0.815,1.481,0.592c0.592-0.225,0.887-0.887,0.592-1.481
			c-0.225-0.592-0.887-0.815-1.481-0.592c-0.592,0.298-0.812,0.89-0.592,1.482 M277.795,288.295l2.296,3.038
			c0.52,0.666,1.409,0.741,2,0.296l2.965-2.225c0.225-0.148,0.296-0.37,0.37-0.592c0.075-0.445-0.295-0.887-0.74-0.962h-0.37
			c-0.887,0.223-1.852,0.223-2.815,0.075c-0.962-0.15-1.777-0.448-2.668-0.891c-0.15-0.075-0.225-0.075-0.296-0.075
			c-0.446-0.073-0.89,0.298-0.965,0.742c0,0.225,0.075,0.445,0.225,0.592 M283.795,298.668l-2.295-3.038
			c-0.445-0.667-1.408-0.742-2-0.297l-2.962,2.223c-0.225,0.15-0.298,0.37-0.371,0.592c-0.075,0.445,0.296,0.887,0.741,0.962h0.37
			c0.887-0.223,1.852-0.223,2.815-0.073c0.962,0.146,1.779,0.443,2.669,0.888c0.146,0.073,0.22,0.073,0.293,0.073
			c0.446,0.075,0.89-0.296,0.962-0.741c-0.073-0.221-0.146-0.443-0.223-0.587 M275.573,296.443l3.038-2.295
			c0.667-0.444,0.741-1.406,0.297-2l-2.223-2.962c-0.148-0.225-0.37-0.296-0.592-0.37c-0.446-0.075-0.89,0.296-0.962,0.741v0.371
			c0.223,0.888,0.223,1.853,0.073,2.815s-0.445,1.85-0.887,2.666c-0.075,0.15-0.075,0.225-0.075,0.296
			c-0.075,0.445,0.296,0.887,0.741,0.962C275.204,296.668,275.425,296.593,275.573,296.443 M285.944,290.443l-3.037,2.295
			c-0.666,0.445-0.741,1.408-0.296,2l2.223,2.965c0.147,0.225,0.37,0.296,0.592,0.37c0.445,0.073,0.887-0.225,0.962-0.741v-0.369
			c-0.223-0.887-0.223-1.852-0.075-2.815c0.15-0.962,0.446-1.853,0.89-2.668c0.073-0.15,0.073-0.225,0.073-0.298
			c0.075-0.445-0.296-0.887-0.741-0.962c-0.221,0.075-0.443,0.15-0.59,0.221 M279.722,293.851c0.225,0.591,0.888,0.813,1.481,0.591
			c0.592-0.225,0.815-0.888,0.592-1.481c-0.225-0.592-0.887-0.815-1.481-0.592C279.798,292.664,279.502,293.331,279.722,293.851
			 M308.243,227.399l0.446,3.779c0.075,0.816,0.815,1.335,1.63,1.26l3.704-0.445c0.225,0,0.445-0.15,0.592-0.296
			c0.295-0.37,0.223-0.887-0.15-1.185c-0.073-0.075-0.148-0.075-0.295-0.15c-0.888-0.295-1.703-0.74-2.444-1.333
			c-0.742-0.594-1.335-1.26-1.854-2.075c-0.075-0.15-0.148-0.225-0.225-0.225c-0.367-0.293-0.887-0.22-1.183,0.15
			c-0.22,0.075-0.22,0.298-0.22,0.519 M308.095,239.399l-0.445-3.779c-0.075-0.815-0.815-1.334-1.556-1.259l-3.704,0.444
			c-0.225,0-0.445,0.15-0.592,0.296c-0.296,0.369-0.225,0.887,0.148,1.184c0.075,0,0.15,0.075,0.296,0.15
			c0.888,0.295,1.705,0.74,2.446,1.333s1.333,1.259,1.85,2.075c0.075,0.148,0.15,0.223,0.15,0.223
			c0.37,0.296,0.888,0.225,1.185-0.15C308.098,239.769,308.098,239.548,308.095,239.399 M302.169,233.325l3.779-0.445
			c0.815-0.075,1.334-0.815,1.259-1.556l-0.444-3.704c0-0.225-0.148-0.445-0.294-0.592c-0.371-0.296-0.89-0.225-1.188,0.15
			c0,0.071-0.073,0.146-0.148,0.293c-0.296,0.89-0.741,1.705-1.334,2.446c-0.591,0.74-1.259,1.333-2.075,1.85
			c-0.148,0.075-0.223,0.15-0.223,0.225c-0.294,0.369-0.221,0.887,0.15,1.184C301.8,233.25,301.949,233.323,302.169,233.325
			 M314.169,233.474l-3.777,0.445c-0.815,0.075-1.334,0.816-1.259,1.631l0.444,3.704c0,0.225,0.15,0.445,0.298,0.592
			c0.37,0.296,0.887,0.225,1.185-0.15v-0.073c0.075-0.075,0.075-0.15,0.15-0.296c0.296-0.887,0.74-1.702,1.334-2.444
			c0.592-0.741,1.259-1.334,2.075-1.853c0.146-0.075,0.22-0.15,0.22-0.225c0.295-0.368,0.223-0.887-0.15-1.183
			c-0.148-0.15-0.295-0.225-0.516-0.15 M307.058,233.176c-0.075,0.595,0.296,1.188,0.962,1.263c0.592,0.073,1.185-0.298,1.26-0.965
			c0.075-0.592-0.296-1.185-0.962-1.259C307.725,232.215,307.133,232.585,307.058,233.176 M264.388,279.996l0.444,3.779
			c0.075,0.815,0.815,1.334,1.556,1.259l3.704-0.443c0.225,0,0.445-0.15,0.592-0.298c0.296-0.37,0.225-0.887-0.15-1.185
			c-0.073,0-0.148-0.075-0.295-0.15c-0.887-0.295-1.704-0.74-2.445-1.333c-0.741-0.592-1.332-1.259-1.85-2.075
			c-0.075-0.148-0.15-0.223-0.225-0.223c-0.369-0.294-0.888-0.221-1.184,0.15c-0.146,0.073-0.146,0.295-0.148,0.516
			 M264.238,291.924l-0.445-3.779c-0.073-0.815-0.813-1.334-1.555-1.259l-3.704,0.369c-0.225,0-0.445,0.15-0.592,0.298
			c-0.296,0.37-0.225,0.887,0.15,1.185c0.073,0,0.148,0.075,0.295,0.15c0.887,0.296,1.704,0.741,2.445,1.334
			c0.741,0.594,1.332,1.26,1.85,2.075c0.075,0.15,0.15,0.225,0.225,0.225c0.369,0.293,0.888,0.22,1.184-0.15
			c0.148,0,0.148-0.225,0.148-0.445 M258.313,285.923l3.777-0.445c0.815-0.075,1.334-0.815,1.259-1.63l-0.445-3.704
			c0-0.223-0.15-0.444-0.296-0.591c-0.37-0.298-0.888-0.225-1.185,0.148c0,0.075-0.075,0.15-0.15,0.296
			c-0.298,0.887-0.741,1.705-1.335,2.446c-0.592,0.74-1.259,1.331-2.075,1.85c-0.146,0.075-0.22,0.15-0.22,0.225
			c-0.296,0.369-0.225,0.887,0.15,1.184c0.148,0.15,0.295,0.225,0.516,0.225 M270.313,285.996l-3.779,0.446
			c-0.815,0.073-1.334,0.813-1.259,1.555l0.444,3.704c0,0.221,0.147,0.444,0.294,0.591c0.371,0.296,0.89,0.225,1.188-0.15
			c0-0.073,0.073-0.148,0.148-0.295c0.296-0.887,0.741-1.705,1.334-2.446c0.591-0.741,1.259-1.334,2.075-1.852
			c0.146-0.075,0.223-0.15,0.223-0.225c0.294-0.368,0.221-0.888-0.15-1.183c-0.148-0.073-0.296-0.148-0.516-0.146 M263.2,285.776
			c-0.073,0.592,0.297,1.185,0.965,1.259c0.591,0.075,1.184-0.294,1.259-0.962c0.073-0.592-0.298-1.185-0.965-1.259
			C263.867,284.739,263.274,285.181,263.2,285.776 M320.838,241.548l-1.408,3.556c-0.296,0.74,0.075,1.555,0.815,1.85l3.481,1.408
			c0.225,0.075,0.448,0.075,0.669,0c0.445-0.225,0.666-0.666,0.445-1.113v-0.071c0-0.075-0.073-0.15-0.147-0.225
			c-0.666-0.665-1.185-1.481-1.556-2.295c-0.37-0.887-0.592-1.777-0.592-2.74c0-0.15,0-0.225-0.075-0.298
			c-0.223-0.445-0.665-0.666-1.11-0.445c-0.296,0.075-0.445,0.225-0.518,0.37 M315.133,252.068l1.408-3.556
			c0.296-0.741-0.075-1.556-0.815-1.853l-3.408-1.408c-0.225-0.075-0.445-0.075-0.666,0c-0.445,0.225-0.666,0.666-0.445,1.113v0.073
			c0,0.075,0.075,0.15,0.15,0.225c0.666,0.665,1.185,1.48,1.556,2.295c0.369,0.89,0.591,1.779,0.591,2.741c0,0.15,0,0.225,0.075,0.3
			c0.223,0.444,0.665,0.665,1.11,0.444c0.15,0,0.298-0.15,0.446-0.37 M312.688,243.993l3.556,1.408
			c0.741,0.296,1.556-0.075,1.853-0.815l1.408-3.408c0.075-0.225,0.075-0.445,0-0.666c-0.15-0.445-0.666-0.666-1.113-0.445h-0.073
			c-0.075,0-0.15,0.073-0.225,0.148c-0.665,0.666-1.48,1.185-2.295,1.556c-0.89,0.369-1.779,0.591-2.741,0.591
			c-0.15,0-0.225,0-0.298,0.075c-0.446,0.223-0.668,0.665-0.446,1.11c0.075,0.223,0.225,0.296,0.37,0.446 M323.208,249.696
			l-3.556-1.406c-0.74-0.296-1.555,0.075-1.85,0.815l-1.409,3.481c-0.073,0.225-0.073,0.446,0,0.667
			c0.225,0.444,0.667,0.665,1.113,0.444h0.075c0.071,0,0.146-0.075,0.22-0.15c0.665-0.665,1.48-1.184,2.295-1.555
			c0.89-0.369,1.779-0.591,2.743-0.591c0.15,0,0.225-0.075,0.296-0.075c0.445-0.223,0.666-0.665,0.445-1.11
			c0-0.298-0.147-0.446-0.37-0.519 M317.059,246.143c-0.37,0.516-0.296,1.184,0.225,1.555c0.516,0.37,1.183,0.296,1.554-0.225
			c0.37-0.516,0.296-1.184-0.225-1.555C318.17,245.548,317.429,245.695,317.059,246.143 M257.35,267.255l-1.409,3.556
			c-0.296,0.741,0.075,1.556,0.815,1.853l3.408,1.408c0.225,0.075,0.446,0.075,0.668,0c0.446-0.225,0.667-0.666,0.446-1.113v-0.073
			c0-0.075-0.075-0.15-0.15-0.225c-0.665-0.665-1.184-1.48-1.555-2.295c-0.37-0.887-0.592-1.777-0.592-2.741
			c0-0.15,0-0.225-0.075-0.296c-0.223-0.445-0.665-0.666-1.11-0.445c-0.146,0-0.295,0.147-0.444,0.37 M251.645,277.774l1.406-3.556
			c0.298-0.741-0.073-1.556-0.812-1.852l-3.483-1.408c-0.225-0.073-0.446-0.073-0.667,0c-0.445,0.225-0.666,0.667-0.445,1.112v0.075
			c0,0.071,0.075,0.146,0.15,0.22c0.665,0.666,1.184,1.481,1.555,2.296c0.37,0.89,0.592,1.779,0.592,2.743
			c0,0.147,0.075,0.223,0.075,0.295c0.223,0.445,0.665,0.666,1.11,0.445c0.296-0.075,0.445-0.225,0.518-0.37 M249.275,269.625
			l3.555,1.408c0.741,0.296,1.556-0.075,1.852-0.815l1.408-3.481c0.073-0.225,0.073-0.445,0-0.666
			c-0.225-0.445-0.667-0.666-1.113-0.445h-0.075c-0.071,0-0.146,0.075-0.22,0.15c-0.666,0.666-1.481,1.188-2.296,1.556
			c-0.891,0.371-1.78,0.594-2.744,0.594c-0.15,0-0.225,0-0.296,0.075c-0.445,0.223-0.666,0.666-0.445,1.112
			c0,0.295,0.15,0.444,0.37,0.516 M259.795,275.405l-3.558-1.409c-0.741-0.296-1.556,0.075-1.852,0.815l-1.408,3.481
			c-0.075,0.225-0.075,0.445,0,0.666c0.225,0.446,0.666,0.668,1.113,0.446l0.073-0.003c0.075,0,0.15-0.075,0.225-0.15
			c0.665-0.663,1.48-1.183,2.295-1.554c0.887-0.37,1.777-0.592,2.74-0.592c0.15,0,0.225,0,0.298-0.071
			c0.445-0.225,0.666-0.666,0.445-1.113C260.09,275.628,259.94,275.479,259.795,275.405 M253.644,271.849
			c-0.37,0.518-0.296,1.185,0.225,1.556c0.516,0.37,1.183,0.296,1.554-0.225c0.37-0.516,0.296-1.183-0.225-1.554
			C254.682,271.255,253.942,271.33,253.644,271.849 M325.282,261.033l-2.962,2.37c-0.592,0.517-0.742,1.408-0.223,2l2.296,2.891
			c0.15,0.15,0.37,0.295,0.592,0.37c0.444,0.073,0.887-0.298,0.962-0.741v-0.371c-0.225-0.887-0.298-1.852-0.225-2.74
			c0.075-0.962,0.371-1.855,0.816-2.669c0.075-0.15,0.075-0.223,0.075-0.295c0.075-0.446-0.296-0.89-0.741-0.962
			c-0.221-0.075-0.443-0.003-0.59,0.148 M315.059,267.33l2.962-2.371c0.594-0.521,0.742-1.413,0.225-2.002l-2.298-2.888
			c-0.15-0.15-0.371-0.296-0.594-0.37c-0.446-0.075-0.89,0.296-0.962,0.741v0.37c0.223,0.887,0.295,1.853,0.223,2.74
			c-0.075,0.962-0.371,1.854-0.816,2.669c-0.075,0.147-0.075,0.221-0.075,0.294c-0.073,0.446,0.298,0.89,0.742,0.962
			c0.225,0,0.445-0.073,0.592-0.147 M316.985,259.105l2.37,2.965c0.52,0.593,1.409,0.741,2,0.225l2.89-2.3
			c0.221-0.148,0.294-0.369,0.369-0.591c0.075-0.446-0.295-0.89-0.74-0.965h-0.367c-0.89,0.225-1.854,0.296-2.743,0.225
			c-0.962-0.075-1.852-0.371-2.667-0.816c-0.148-0.073-0.225-0.073-0.296-0.073c-0.446-0.075-0.89,0.296-0.965,0.741
			c0,0.22,0.078,0.368,0.15,0.587 M323.357,269.255l-2.371-2.965c-0.517-0.592-1.408-0.741-2-0.225l-2.887,2.3
			c-0.15,0.148-0.3,0.369-0.373,0.591c-0.075,0.446,0.296,0.89,0.741,0.965h0.37c0.887-0.225,1.85-0.296,2.737-0.225
			c0.965,0.075,1.854,0.371,2.669,0.816c0.15,0.075,0.225,0.075,0.296,0.075c0.445,0.073,0.887-0.298,0.962-0.742
			c0-0.223-0.075-0.444-0.148-0.591 M319.725,263.18c-0.591,0.223-0.813,0.887-0.591,1.48c0.225,0.592,0.887,0.815,1.481,0.592
			c0.592-0.225,0.815-0.887,0.592-1.481c-0.296-0.592-0.888-0.887-1.481-0.592 M257.423,251.993l-2.962,2.373
			c-0.594,0.518-0.742,1.408-0.225,2l2.298,2.888c0.15,0.15,0.37,0.298,0.592,0.371c0.446,0.075,0.89-0.296,0.962-0.741v-0.37
			c-0.223-0.887-0.295-1.852-0.223-2.815c0.075-0.962,0.371-1.853,0.816-2.668c0.075-0.15,0.075-0.225,0.075-0.296
			c0.073-0.445-0.298-0.887-0.742-0.962c-0.22,0.075-0.44,0.15-0.59,0.223 M247.2,258.293l2.962-2.371
			c0.592-0.518,0.742-1.408,0.223-2l-2.296-2.891c-0.148-0.148-0.369-0.294-0.591-0.369c-0.444-0.075-0.887,0.296-0.962,0.741v0.367
			c0.225,0.89,0.296,1.854,0.225,2.816c-0.075,0.962-0.373,1.852-0.817,2.667c-0.075,0.148-0.075,0.223-0.075,0.295
			c-0.073,0.445,0.298,0.887,0.742,0.962c0.225,0,0.445-0.073,0.592-0.223 M249.125,250.068l2.371,2.962
			c0.518,0.592,1.408,0.741,2,0.225l2.888-2.3c0.15-0.145,0.3-0.366,0.372-0.587c0.075-0.448-0.296-0.891-0.741-0.965h-0.37
			c-0.887,0.225-1.85,0.296-2.74,0.225c-0.962-0.075-1.852-0.371-2.667-0.816c-0.15-0.075-0.225-0.075-0.296-0.075
			c-0.445-0.073-0.887,0.298-0.962,0.742c0,0.223,0.075,0.444,0.15,0.591 M255.423,260.293l-2.371-2.965
			c-0.516-0.592-1.406-0.741-1.997-0.225l-2.89,2.297c-0.225,0.15-0.296,0.37-0.37,0.593c-0.075,0.445,0.296,0.887,0.741,0.962h0.37
			c0.887-0.223,1.852-0.295,2.74-0.223c0.962,0.075,1.854,0.37,2.669,0.815c0.148,0.075,0.221,0.075,0.294,0.075
			c0.446,0.073,0.89-0.298,0.962-0.742C255.645,260.659,255.57,260.439,255.423,260.293 M251.867,254.143
			c-0.592,0.223-0.815,0.887-0.592,1.48c0.223,0.592,0.887,0.815,1.48,0.592c0.592-0.225,0.815-0.887,0.592-1.481
			C253.05,254.143,252.384,253.921,251.867,254.143 M319.578,279.996l-3.779,0.592c-0.816,0.15-1.335,0.89-1.188,1.631l0.592,3.63
			c0,0.225,0.15,0.445,0.37,0.592c0.37,0.298,0.887,0.225,1.185-0.221c0-0.075,0.075-0.15,0.148-0.296
			c0.225-0.887,0.666-1.777,1.185-2.519c0.517-0.74,1.259-1.406,2-1.925l0.223-0.225c0.296-0.369,0.225-0.962-0.225-1.184
			c-0.069-0.075-0.29-0.075-0.513-0.075 M307.575,280.515l3.78-0.593c0.815-0.15,1.334-0.887,1.185-1.63l-0.592-3.63
			c0-0.221-0.148-0.444-0.369-0.591c-0.37-0.296-0.887-0.225-1.185,0.225c0,0.071-0.075,0.146-0.15,0.293
			c-0.223,0.89-0.665,1.779-1.184,2.52c-0.518,0.741-1.259,1.408-2,1.925c-0.15,0.075-0.15,0.15-0.223,0.225
			c-0.296,0.369-0.225,0.887,0.225,1.184C307.208,280.443,307.429,280.518,307.575,280.515 M313.355,274.293l0.592,3.777
			c0.15,0.815,0.888,1.334,1.63,1.185l3.63-0.594c0.225,0,0.445-0.15,0.592-0.37c0.294-0.371,0.221-0.89-0.225-1.188
			c-0.073,0-0.148-0.073-0.295-0.148c-0.887-0.225-1.777-0.666-2.519-1.185c-0.742-0.591-1.409-1.259-1.927-2
			c-0.075-0.148-0.147-0.148-0.225-0.223c-0.368-0.296-0.887-0.225-1.183,0.225c-0.073,0.073-0.073,0.295-0.073,0.516
			 M313.875,286.22l-0.594-3.779c-0.15-0.818-0.887-1.338-1.63-1.188l-3.63,0.594c-0.225,0-0.445,0.15-0.592,0.37
			c-0.296,0.371-0.225,0.89,0.225,1.188c0.071,0,0.146,0.073,0.293,0.147c0.89,0.221,1.779,0.665,2.52,1.184
			c0.741,0.518,1.409,1.259,1.929,2c0.073,0.148,0.148,0.148,0.221,0.223c0.37,0.296,0.887,0.225,1.185-0.225
			c0-0.071,0.075-0.294,0.075-0.513 M313.725,279.108c-0.592-0.07-1.185,0.372-1.185,0.962c-0.075,0.594,0.37,1.188,0.962,1.26
			c0.592,0.075,1.185-0.368,1.26-0.962c0-0.591-0.445-1.184-1.037-1.258 M264.832,238.88l-3.779,0.592
			c-0.815,0.15-1.334,0.887-1.185,1.63l0.592,3.631c0,0.225,0.15,0.445,0.37,0.592c0.371,0.296,0.89,0.225,1.188-0.225
			c0-0.071,0.073-0.146,0.148-0.293c0.225-0.89,0.666-1.779,1.185-2.52c0.517-0.741,1.185-1.406,2-1.925l0.223-0.225
			c0.296-0.368,0.225-0.887-0.225-1.183c-0.071-0.073-0.293-0.148-0.516-0.073 M252.904,239.325l3.704-0.592
			c0.815-0.15,1.334-0.887,1.185-1.63l-0.592-3.63c0-0.225-0.15-0.445-0.37-0.592c-0.371-0.298-0.89-0.225-1.188,0.221
			c0,0.075-0.073,0.15-0.148,0.296c-0.225,0.887-0.666,1.777-1.185,2.519c-0.518,0.74-1.185,1.406-2,1.925
			c-0.15,0.075-0.15,0.15-0.223,0.225c-0.296,0.367-0.225,0.887,0.225,1.183C252.458,239.324,252.68,239.324,252.904,239.325
			 M258.607,233.103l0.594,3.775c0.15,0.817,0.887,1.337,1.63,1.188l3.631-0.592c0.223,0,0.444-0.15,0.591-0.37
			c0.296-0.37,0.225-0.887-0.225-1.185c-0.071,0-0.146-0.075-0.293-0.15c-0.891-0.22-1.78-0.662-2.521-1.183
			c-0.741-0.52-1.409-1.188-1.929-2c-0.073-0.15-0.148-0.15-0.221-0.225c-0.37-0.296-0.962-0.225-1.185,0.225
			c0,0.148-0.075,0.295-0.075,0.516 M259.125,245.105l-0.591-3.78c-0.15-0.812-0.887-1.333-1.63-1.184l-3.704,0.591
			c-0.225,0-0.445,0.15-0.592,0.37c-0.296,0.369-0.225,0.962,0.225,1.184h0.071c0.075,0,0.15,0.075,0.296,0.15
			c0.887,0.223,1.777,0.665,2.519,1.184c0.741,0.518,1.408,1.259,1.925,2l0.225,0.223c0.369,0.296,0.887,0.225,1.184-0.225
			c0.073-0.145,0.073-0.368,0.075-0.516 M258.979,237.993c-0.592-0.075-1.185,0.369-1.185,0.962
			c-0.075,0.591,0.37,1.184,0.962,1.259c0.592,0.075,1.185-0.37,1.185-0.962C260.092,238.584,259.572,238.064,258.979,237.993
			 M304.317,294.295l-3.556-1.408c-0.741-0.296-1.556,0.075-1.853,0.815l-1.408,3.481c-0.075,0.225-0.075,0.445,0,0.666
			c0.225,0.446,0.666,0.668,1.113,0.446l0.075-0.003c0.073,0,0.147-0.073,0.223-0.147c0.665-0.665,1.481-1.184,2.295-1.555
			c0.888-0.37,1.777-0.592,2.74-0.592c0.15,0,0.225,0,0.298-0.075c0.444-0.223,0.665-0.665,0.444-1.11
			C304.687,294.519,304.537,294.37,304.317,294.295 M293.798,288.515l3.556,1.408c0.741,0.294,1.556-0.075,1.852-0.816l1.408-3.48
			c0.075-0.225,0.075-0.446,0-0.668c-0.223-0.445-0.665-0.666-1.11-0.445h-0.075c-0.073,0-0.146,0.075-0.223,0.15
			c-0.665,0.665-1.481,1.184-2.295,1.555c-0.888,0.369-1.777,0.591-2.74,0.591c-0.15,0-0.225,0-0.298,0.075
			c-0.446,0.148-0.667,0.665-0.446,1.11c0.075,0.3,0.223,0.45,0.372,0.523 M301.947,286.146l-1.408,3.556
			c-0.296,0.741,0.075,1.556,0.815,1.852l3.408,1.408c0.225,0.075,0.445,0.075,0.666,0c0.446-0.225,0.667-0.666,0.446-1.113v-0.073
			c0-0.073-0.075-0.148-0.15-0.221c-0.666-0.665-1.188-1.48-1.555-2.295c-0.37-0.888-0.592-1.777-0.592-2.74
			c0-0.15-0.075-0.225-0.075-0.298c-0.225-0.445-0.667-0.666-1.113-0.445c-0.225,0-0.37,0.225-0.445,0.37 M296.168,296.665
			l1.408-3.556c0.294-0.741-0.075-1.556-0.816-1.852l-3.481-1.406c-0.225-0.075-0.446-0.075-0.667,0
			c-0.445,0.225-0.666,0.666-0.445,1.112v0.075c0,0.073,0.075,0.148,0.15,0.223c0.665,0.666,1.184,1.481,1.555,2.296
			c0.369,0.887,0.591,1.775,0.591,2.74c0,0.15,0,0.225,0.073,0.296c0.15,0.444,0.666,0.665,1.113,0.444
			C295.943,297.036,296.093,296.811,296.168,296.665 M299.725,290.518c-0.519-0.371-1.188-0.298-1.557,0.223
			c-0.37,0.518-0.296,1.185,0.225,1.556c0.516,0.37,1.183,0.296,1.554-0.225C300.317,291.554,300.243,290.886,299.725,290.518
			 M278.684,230.805l-3.556-1.408c-0.741-0.296-1.556,0.075-1.853,0.815l-1.408,3.483c-0.075,0.225-0.075,0.445,0,0.666
			c0.225,0.444,0.666,0.665,1.113,0.444c0.073,0,0.148-0.075,0.223-0.15c0.665-0.663,1.481-1.183,2.295-1.554
			c0.887-0.37,1.777-0.592,2.74-0.592c0.15,0,0.225-0.075,0.298-0.075v0.004c0.445-0.225,0.666-0.666,0.445-1.113
			c0-0.295-0.15-0.444-0.296-0.516 M268.165,225.026l3.556,1.409c0.741,0.296,1.556-0.075,1.853-0.815l1.406-3.481
			c0.075-0.225,0.075-0.445,0-0.666c-0.225-0.445-0.666-0.666-1.113-0.445h-0.075c-0.073,0-0.146,0.075-0.223,0.15
			c-0.665,0.662-1.481,1.183-2.295,1.554c-0.888,0.371-1.775,0.594-2.738,0.594c-0.15,0-0.225,0.075-0.3,0.075
			c-0.516,0.295-0.74,0.813-0.516,1.258c0.073,0.15,0.223,0.298,0.444,0.371 M276.24,222.658l-1.408,3.556
			c-0.296,0.741,0.075,1.556,0.815,1.852l3.41,1.406c0.221,0.075,0.444,0.075,0.665,0c0.445-0.225,0.666-0.666,0.445-1.113v-0.073
			c0-0.075-0.075-0.15-0.15-0.225c-0.665-0.665-1.184-1.48-1.555-2.295c-0.37-0.885-0.592-1.775-0.592-2.737
			c0-0.15-0.073-0.223-0.073-0.295c-0.225-0.446-0.666-0.667-1.113-0.446c-0.146,0.075-0.295,0.225-0.444,0.371 M270.535,233.176
			l1.408-3.554c0.298-0.741-0.073-1.556-0.812-1.852l-3.483-1.408c-0.225-0.075-0.446-0.075-0.668,0
			c-0.445,0.225-0.666,0.666-0.445,1.113v0.073c0,0.075,0.075,0.15,0.15,0.225c0.665,0.665,1.184,1.48,1.555,2.295
			c0.371,0.887,0.594,1.775,0.594,2.74c0,0.15,0,0.225,0.075,0.296c0.223,0.444,0.665,0.665,1.11,0.444
			c0.296,0,0.445-0.15,0.517-0.37 M274.092,227.03c-0.517-0.371-1.185-0.298-1.556,0.223c-0.37,0.518-0.296,1.184,0.225,1.555
			c0.516,0.37,1.183,0.296,1.554-0.225C274.685,228.139,274.539,227.398,274.092,227.03"/>
	</g>
	<g>
		<path fill="#EAD711" d="M353.359,181.54l14.372,12.594l2.223-5.853l15.631,25.337l-13.853-13.262l-1.779,7.188L353.359,181.54
			L353.359,181.54z M415.368,216.063l7.259-7.334v4.296l18.67-10.148l-21.337,17.185v-4l-4.59-0.003L415.368,216.063z
			 M385.142,217.768l-8.594-6.298v6.15l-14.52-2.15l18,6.15v-3.854L385.142,217.768L385.142,217.768z"/>
		<path fill="#040000" d="M391.808,204.136c0,0-3.038,0.592-3.481,3.779c-0.445,3.185,0,17.925,0,17.925s4,1.558,7.63,0.594
			c3.63-0.962,8.15,0.444,10.962,0.294c2.816-0.148,3.854,0.446,5.335-0.518v-17.409c0,0,0-4.741-4.221-4.669
			c-4.225,0.075-9.854-3.777-9.854-3.777l-6.371,3.779L391.808,204.136L391.808,204.136z"/>
		
			<path fill="none" stroke="#999999" stroke-width="0.63" stroke-linecap="round" stroke-linejoin="round" stroke-miterlimit="10" d="
			M391.808,204.136c0,0-3.038,0.592-3.481,3.779c-0.445,3.185,0,17.925,0,17.925s4,1.558,7.63,0.594
			c3.63-0.962,8.15,0.444,10.962,0.294c2.816-0.148,3.854,0.446,5.335-0.518v-17.409c0,0,0-4.741-4.221-4.669
			c-4.225,0.075-9.854-3.777-9.854-3.777l-6.371,3.779L391.808,204.136L391.808,204.136z M392.623,222.435v4.296 M407.81,222.583
			v4.15"/>
		<path fill="#040000" d="M436.48,170.8v-0.075c-0.15-0.516-0.296-0.813-0.296-0.813c-0.962-2-2.962-3.483-5.334-3.483v-0.003
			c-1.777,0-3.408,0.815-4.519,2c-0.148,0.148-0.518,0.592-1.556,1.777c-2.296,2.816-3.188,3.927-4.445,5.112
			c-1.259,1.113-2.075,1.63-4.075,1.63h-32.15c-2,0-2.741-0.518-4.075-1.63c-1.26-1.113-2.15-2.223-4.446-5.112
			c-0.962-1.183-1.408-1.628-1.556-1.775c-1.113-1.26-2.74-2-4.519-2c-2.37,0-4.371,1.406-5.334,3.48c0,0-0.147,0.298-0.296,0.816
			v0.075c-0.225,0.812-0.518,2.072-0.518,3.925v20.595c0,4.296,3.48,7.853,7.85,7.853h58.008c4.296,0,7.853-3.481,7.853-7.853
			v-20.595c-0.075-1.777-0.295-3.11-0.592-3.925"/>
		
			<path fill="none" stroke="#999999" stroke-width="0.63" stroke-linecap="round" stroke-linejoin="round" stroke-miterlimit="10" d="
			M436.48,170.8v-0.075c-0.15-0.516-0.296-0.813-0.296-0.813c-0.962-2-2.962-3.483-5.334-3.483v-0.003c-1.777,0-3.408,0.815-4.519,2
			c-0.148,0.148-0.518,0.592-1.556,1.777c-2.296,2.816-3.188,3.927-4.445,5.112c-1.259,1.113-2.075,1.63-4.075,1.63h-32.15
			c-2,0-2.741-0.518-4.075-1.63c-1.26-1.113-2.15-2.223-4.446-5.112c-0.962-1.183-1.408-1.628-1.556-1.775
			c-1.113-1.26-2.74-2-4.519-2c-2.37,0-4.371,1.406-5.334,3.48c0,0-0.147,0.298-0.296,0.816v0.075
			c-0.225,0.812-0.518,2.072-0.518,3.925v20.595c0,4.296,3.48,7.853,7.85,7.853h58.008c4.296,0,7.853-3.481,7.853-7.853v-20.595
			c-0.075-1.777-0.295-3.11-0.592-3.925L436.48,170.8z"/>
		<path fill="#FFFFFF" d="M400.328,189.913c-0.225,0-0.37-0.075-0.517-0.225l-2-2.295c-0.15-0.221-0.225-0.518-0.15-0.741
			c0.075-0.221,0.37-0.369,0.592-0.369h4.075c0.297,0,0.52,0.15,0.594,0.37c0.075,0.225,0.075,0.518-0.15,0.741l-2,2.298
			C400.697,189.841,400.477,189.916,400.328,189.913"/>
		
			<path fill="none" stroke="#999999" stroke-width="0.63" stroke-linecap="round" stroke-linejoin="round" stroke-miterlimit="10" d="
			M397.513,178.133c0,0,1.334,3.334-2.371,4.445 M403.143,178.578c0,0-0.887,3.26,0,3.927c0.887,0.666,3.408,0,3.408,0"/>
		<path fill="#FFFFFF" d="M369.954,188.283c0-6.15,4.962-11.037,11.037-11.037c6.15,0,11.04,4.963,11.04,11.037
			c0,6.15-4.962,11.037-11.037,11.037C374.919,199.395,369.954,194.433,369.954,188.283 M408.033,188.283
			c0-6.15,4.962-11.037,11.037-11.037c6.15,0,11.037,4.963,11.037,11.037c0,6.15-4.962,11.037-11.037,11.037
			c-6.075,0.075-11.04-4.888-11.04-11.037"/>
		
			<path fill="none" stroke="#FFFFFF" stroke-width="0.63" stroke-linecap="round" stroke-linejoin="round" stroke-miterlimit="10" d="
			M400.328,189.618v4.518"/>
		<path fill="#090204" d="M389.363,201.839c0,0,0.371,16.15,1.706,18.52c1.259,2.371,2.37,2.962,5.408,3.26
			c3.037,0.298,8.817,0.298,10.669-0.516c1.853-0.815,2.296-2.371,2.74-5.334c0.52-2.962,0.89-15.188,0.89-15.188"/>
		
			<path fill="none" stroke="#999999" stroke-width="0.63" stroke-linecap="round" stroke-linejoin="round" stroke-miterlimit="10" d="
			M389.363,201.839c0,0,0.371,16.15,1.706,18.52c1.259,2.371,2.37,2.962,5.408,3.26c3.037,0.298,8.817,0.298,10.669-0.516
			c1.853-0.815,2.296-2.371,2.74-5.334c0.52-2.962,0.89-15.188,0.89-15.188"/>
		<path fill="#D32A1F" d="M392.475,194.135c1.334,0,11.705-0.225,14.075,0c2.37,0.225,2.74,0.962,2.74,1.852
			c0,0.887-0.369,22.521-1.775,23.93c-1.409,1.406-14.225,1.702-15.04,0c-0.815-1.705-1.481-16.004-1.481-20.078
			C390.994,195.84,390.994,194.136,392.475,194.135"/>
		<path fill="#E26E76" d="M406.55,194.135c-2.37-0.225-12.742,0-14.075,0c-1.259,0-1.481,1.259-1.481,4.221
			c0.075-0.071,1.408-3.182,5.409-2.887c4.075,0.298,2.74,2.075,2.295,2.816c-0.518,0.741-0.518,2.888,1.334,2.668
			c1.852-0.225,1.556-2.15,1.556-3.481c0-1.409,0.371-2.446,3.037-2c2.15,0.369,4.52,0.369,4.594,4.22
			c0.075-2.075,0.075-3.555,0.075-3.777c0-0.815-0.371-1.556-2.741-1.777 M407.513,219.918c0.667-0.668,1.037-5.631,1.335-10.89
			c-0.445-1.633-3.038-5.856-10.148-5.262c-5.038,0.445-6.816,2.887-7.409,4.296c0.294,5.187,0.741,10.816,1.184,11.854
			c0.815,1.705,13.705,1.408,15.04,0"/>
	</g>
</g>
</svg>
